<mxfile host="app.diagrams.net" modified="2022-11-02T16:00:02.199Z" agent="5.0 (Windows NT 10.0; Win64; x64) AppleWebKit/537.36 (KHTML, like Gecko) Chrome/107.0.0.0 Safari/537.36" etag="wLHs3QQCsdiAByAMCIig" version="20.5.1" type="github">
  <diagram id="C5RBs43oDa-KdzZeNtuy" name="Page-1">
    <mxGraphModel dx="1240" dy="705" grid="1" gridSize="10" guides="1" tooltips="1" connect="1" arrows="1" fold="1" page="1" pageScale="1" pageWidth="827" pageHeight="1169" math="0" shadow="0">
      <root>
        <mxCell id="WIyWlLk6GJQsqaUBKTNV-0" />
        <mxCell id="WIyWlLk6GJQsqaUBKTNV-1" parent="WIyWlLk6GJQsqaUBKTNV-0" />
        <mxCell id="BQ6EWb-jSM-SEZKdU9I8-7" value="" style="edgeStyle=orthogonalEdgeStyle;rounded=0;orthogonalLoop=1;jettySize=auto;html=1;" parent="WIyWlLk6GJQsqaUBKTNV-1" source="BQ6EWb-jSM-SEZKdU9I8-2" target="BQ6EWb-jSM-SEZKdU9I8-3" edge="1">
          <mxGeometry relative="1" as="geometry" />
        </mxCell>
        <mxCell id="BQ6EWb-jSM-SEZKdU9I8-2" value="START" style="rounded=1;whiteSpace=wrap;html=1;fillColor=#f5f5f5;gradientColor=#b3b3b3;strokeColor=#666666;fontStyle=1" parent="WIyWlLk6GJQsqaUBKTNV-1" vertex="1">
          <mxGeometry x="40" y="220" width="60" height="40" as="geometry" />
        </mxCell>
        <mxCell id="BQ6EWb-jSM-SEZKdU9I8-6" value="" style="edgeStyle=orthogonalEdgeStyle;rounded=0;orthogonalLoop=1;jettySize=auto;html=1;" parent="WIyWlLk6GJQsqaUBKTNV-1" source="BQ6EWb-jSM-SEZKdU9I8-3" target="BQ6EWb-jSM-SEZKdU9I8-4" edge="1">
          <mxGeometry relative="1" as="geometry" />
        </mxCell>
        <mxCell id="BQ6EWb-jSM-SEZKdU9I8-3" value="Login" style="rounded=1;whiteSpace=wrap;html=1;fillColor=#004C99;strokeColor=#6c8ebf;fontStyle=1;fontSize=15;gradientColor=none;fontColor=#FFFFFF;" parent="WIyWlLk6GJQsqaUBKTNV-1" vertex="1">
          <mxGeometry x="130" y="220" width="60" height="40" as="geometry" />
        </mxCell>
        <mxCell id="BQ6EWb-jSM-SEZKdU9I8-9" value="" style="edgeStyle=orthogonalEdgeStyle;rounded=0;orthogonalLoop=1;jettySize=auto;html=1;" parent="WIyWlLk6GJQsqaUBKTNV-1" source="BQ6EWb-jSM-SEZKdU9I8-4" target="BQ6EWb-jSM-SEZKdU9I8-8" edge="1">
          <mxGeometry relative="1" as="geometry" />
        </mxCell>
        <mxCell id="BQ6EWb-jSM-SEZKdU9I8-4" value="email&lt;br&gt;password&lt;br&gt;api key" style="text;html=1;strokeColor=#666666;fillColor=#f5f5f5;align=center;verticalAlign=middle;whiteSpace=wrap;rounded=0;fontColor=#333333;" parent="WIyWlLk6GJQsqaUBKTNV-1" vertex="1">
          <mxGeometry x="220" y="212.5" width="80" height="55" as="geometry" />
        </mxCell>
        <mxCell id="BQ6EWb-jSM-SEZKdU9I8-13" value="" style="edgeStyle=orthogonalEdgeStyle;rounded=0;orthogonalLoop=1;jettySize=auto;html=1;" parent="WIyWlLk6GJQsqaUBKTNV-1" source="BQ6EWb-jSM-SEZKdU9I8-8" target="BQ6EWb-jSM-SEZKdU9I8-11" edge="1">
          <mxGeometry relative="1" as="geometry" />
        </mxCell>
        <mxCell id="BQ6EWb-jSM-SEZKdU9I8-8" value="/authorization/login" style="rounded=1;whiteSpace=wrap;html=1;fillColor=#d5e8d4;strokeColor=#82b366;" parent="WIyWlLk6GJQsqaUBKTNV-1" vertex="1">
          <mxGeometry x="330" y="210" width="120" height="60" as="geometry" />
        </mxCell>
        <mxCell id="BQ6EWb-jSM-SEZKdU9I8-15" style="edgeStyle=orthogonalEdgeStyle;rounded=0;orthogonalLoop=1;jettySize=auto;html=1;entryX=0;entryY=0.5;entryDx=0;entryDy=0;exitX=0.5;exitY=0;exitDx=0;exitDy=0;" parent="WIyWlLk6GJQsqaUBKTNV-1" source="BQ6EWb-jSM-SEZKdU9I8-11" target="BQ6EWb-jSM-SEZKdU9I8-12" edge="1">
          <mxGeometry relative="1" as="geometry">
            <mxPoint x="740" y="150" as="sourcePoint" />
            <mxPoint x="800" y="130" as="targetPoint" />
          </mxGeometry>
        </mxCell>
        <mxCell id="BQ6EWb-jSM-SEZKdU9I8-16" value="Yes" style="edgeLabel;html=1;align=center;verticalAlign=middle;resizable=0;points=[];" parent="BQ6EWb-jSM-SEZKdU9I8-15" vertex="1" connectable="0">
          <mxGeometry x="-0.2727" y="-16" relative="1" as="geometry">
            <mxPoint as="offset" />
          </mxGeometry>
        </mxCell>
        <mxCell id="BQ6EWb-jSM-SEZKdU9I8-19" style="edgeStyle=orthogonalEdgeStyle;rounded=0;orthogonalLoop=1;jettySize=auto;html=1;exitX=0.5;exitY=1;exitDx=0;exitDy=0;entryX=0;entryY=0.5;entryDx=0;entryDy=0;" parent="WIyWlLk6GJQsqaUBKTNV-1" source="BQ6EWb-jSM-SEZKdU9I8-11" target="BQ6EWb-jSM-SEZKdU9I8-17" edge="1">
          <mxGeometry relative="1" as="geometry" />
        </mxCell>
        <mxCell id="BQ6EWb-jSM-SEZKdU9I8-20" value="No" style="edgeLabel;html=1;align=center;verticalAlign=middle;resizable=0;points=[];" parent="BQ6EWb-jSM-SEZKdU9I8-19" vertex="1" connectable="0">
          <mxGeometry x="-0.1077" y="8" relative="1" as="geometry">
            <mxPoint x="12" as="offset" />
          </mxGeometry>
        </mxCell>
        <mxCell id="BQ6EWb-jSM-SEZKdU9I8-11" value="api key&lt;br&gt;valid" style="rhombus;whiteSpace=wrap;html=1;fillColor=#ffe6cc;strokeColor=#d79b00;" parent="WIyWlLk6GJQsqaUBKTNV-1" vertex="1">
          <mxGeometry x="495" y="200" width="80" height="80" as="geometry" />
        </mxCell>
        <mxCell id="BQ6EWb-jSM-SEZKdU9I8-21" style="edgeStyle=orthogonalEdgeStyle;curved=1;rounded=0;orthogonalLoop=1;jettySize=auto;html=1;entryX=0.5;entryY=0;entryDx=0;entryDy=0;" parent="WIyWlLk6GJQsqaUBKTNV-1" source="BQ6EWb-jSM-SEZKdU9I8-12" target="BQ6EWb-jSM-SEZKdU9I8-17" edge="1">
          <mxGeometry relative="1" as="geometry" />
        </mxCell>
        <mxCell id="BQ6EWb-jSM-SEZKdU9I8-22" value="No" style="edgeLabel;html=1;align=center;verticalAlign=middle;resizable=0;points=[];" parent="BQ6EWb-jSM-SEZKdU9I8-21" vertex="1" connectable="0">
          <mxGeometry x="-0.2167" relative="1" as="geometry">
            <mxPoint as="offset" />
          </mxGeometry>
        </mxCell>
        <mxCell id="BQ6EWb-jSM-SEZKdU9I8-27" style="edgeStyle=orthogonalEdgeStyle;curved=1;rounded=0;orthogonalLoop=1;jettySize=auto;html=1;entryX=0;entryY=0.5;entryDx=0;entryDy=0;" parent="WIyWlLk6GJQsqaUBKTNV-1" source="BQ6EWb-jSM-SEZKdU9I8-12" target="BQ6EWb-jSM-SEZKdU9I8-123" edge="1">
          <mxGeometry relative="1" as="geometry" />
        </mxCell>
        <mxCell id="BQ6EWb-jSM-SEZKdU9I8-28" value="Yes" style="edgeLabel;html=1;align=center;verticalAlign=middle;resizable=0;points=[];" parent="BQ6EWb-jSM-SEZKdU9I8-27" vertex="1" connectable="0">
          <mxGeometry x="0.2286" y="4" relative="1" as="geometry">
            <mxPoint as="offset" />
          </mxGeometry>
        </mxCell>
        <mxCell id="BQ6EWb-jSM-SEZKdU9I8-12" value="user/password&lt;br&gt;ok" style="rhombus;whiteSpace=wrap;html=1;fillColor=#ffe6cc;strokeColor=#d79b00;" parent="WIyWlLk6GJQsqaUBKTNV-1" vertex="1">
          <mxGeometry x="605" y="125" width="70" height="80" as="geometry" />
        </mxCell>
        <mxCell id="BQ6EWb-jSM-SEZKdU9I8-17" value="error" style="rounded=1;whiteSpace=wrap;html=1;fillColor=#f8cecc;strokeColor=#b85450;" parent="WIyWlLk6GJQsqaUBKTNV-1" vertex="1">
          <mxGeometry x="580" y="290" width="120" height="60" as="geometry" />
        </mxCell>
        <mxCell id="BQ6EWb-jSM-SEZKdU9I8-23" value="&lt;span style=&quot;color: rgb(0, 0, 0); font-family: &amp;quot;Times New Roman&amp;quot;; font-size: 11px;&quot;&gt;{&lt;/span&gt;&lt;br style=&quot;color: rgb(0, 0, 0); font-family: &amp;quot;Times New Roman&amp;quot;; font-size: 11px;&quot;&gt;&lt;span style=&quot;color: rgb(0, 0, 0); font-family: &amp;quot;Times New Roman&amp;quot;; font-size: 11px;&quot;&gt;&quot;first_name&quot;: &quot;Admin&quot;,&lt;/span&gt;&lt;br style=&quot;color: rgb(0, 0, 0); font-family: &amp;quot;Times New Roman&amp;quot;; font-size: 11px;&quot;&gt;&lt;span style=&quot;color: rgb(0, 0, 0); font-family: &amp;quot;Times New Roman&amp;quot;; font-size: 11px;&quot;&gt;&quot;last_name&quot;: &quot;Admin&quot;,&lt;/span&gt;&lt;br style=&quot;color: rgb(0, 0, 0); font-family: &amp;quot;Times New Roman&amp;quot;; font-size: 11px;&quot;&gt;&lt;span style=&quot;color: rgb(0, 0, 0); font-family: &amp;quot;Times New Roman&amp;quot;; font-size: 11px;&quot;&gt;&quot;email&quot;: &quot;user@mail.com&quot;,&lt;/span&gt;&lt;br style=&quot;color: rgb(0, 0, 0); font-family: &amp;quot;Times New Roman&amp;quot;; font-size: 11px;&quot;&gt;&lt;span style=&quot;color: rgb(0, 0, 0); font-family: &amp;quot;Times New Roman&amp;quot;; font-size: 11px;&quot;&gt;&quot;phone&quot;: &quot;123456789&quot;,&lt;/span&gt;&lt;br style=&quot;color: rgb(0, 0, 0); font-family: &amp;quot;Times New Roman&amp;quot;; font-size: 11px;&quot;&gt;&lt;span style=&quot;color: rgb(0, 0, 0); font-family: &amp;quot;Times New Roman&amp;quot;; font-size: 11px;&quot;&gt;&quot;role_id&quot;: 1,&lt;/span&gt;&lt;br style=&quot;color: rgb(0, 0, 0); font-family: &amp;quot;Times New Roman&amp;quot;; font-size: 11px;&quot;&gt;&lt;span style=&quot;color: rgb(0, 0, 0); font-family: &amp;quot;Times New Roman&amp;quot;; font-size: 11px;&quot;&gt;&quot;company_id&quot;: 1,&lt;/span&gt;&lt;br style=&quot;color: rgb(0, 0, 0); font-family: &amp;quot;Times New Roman&amp;quot;; font-size: 11px;&quot;&gt;&lt;span style=&quot;color: rgb(0, 0, 0); font-family: &amp;quot;Times New Roman&amp;quot;; font-size: 11px;&quot;&gt;&quot;userapp_id&quot;: null,&lt;/span&gt;&lt;br style=&quot;color: rgb(0, 0, 0); font-family: &amp;quot;Times New Roman&amp;quot;; font-size: 11px;&quot;&gt;&lt;span style=&quot;color: rgb(0, 0, 0); font-family: &amp;quot;Times New Roman&amp;quot;; font-size: 11px;&quot;&gt;&quot;status&quot;: &quot;active&quot;,&lt;/span&gt;&lt;br style=&quot;color: rgb(0, 0, 0); font-family: &amp;quot;Times New Roman&amp;quot;; font-size: 11px;&quot;&gt;&lt;span style=&quot;color: rgb(0, 0, 0); font-family: &amp;quot;Times New Roman&amp;quot;; font-size: 11px;&quot;&gt;&quot;active&quot;: true&lt;/span&gt;&lt;br style=&quot;color: rgb(0, 0, 0); font-family: &amp;quot;Times New Roman&amp;quot;; font-size: 11px;&quot;&gt;&lt;span style=&quot;color: rgb(0, 0, 0); font-family: &amp;quot;Times New Roman&amp;quot;; font-size: 11px;&quot;&gt;}&lt;/span&gt;" style="text;html=1;strokeColor=#666666;fillColor=#f5f5f5;align=left;verticalAlign=middle;whiteSpace=wrap;rounded=0;fontColor=#333333;fontSize=11;" parent="WIyWlLk6GJQsqaUBKTNV-1" vertex="1">
          <mxGeometry x="860" y="90" width="140" height="150" as="geometry" />
        </mxCell>
        <mxCell id="BQ6EWb-jSM-SEZKdU9I8-29" value="" style="edgeStyle=orthogonalEdgeStyle;rounded=0;orthogonalLoop=1;jettySize=auto;html=1;" parent="WIyWlLk6GJQsqaUBKTNV-1" source="BQ6EWb-jSM-SEZKdU9I8-30" target="BQ6EWb-jSM-SEZKdU9I8-32" edge="1">
          <mxGeometry relative="1" as="geometry" />
        </mxCell>
        <mxCell id="BQ6EWb-jSM-SEZKdU9I8-30" value="START" style="rounded=1;whiteSpace=wrap;html=1;fillColor=#f5f5f5;gradientColor=#b3b3b3;strokeColor=#666666;" parent="WIyWlLk6GJQsqaUBKTNV-1" vertex="1">
          <mxGeometry x="40" y="570" width="60" height="40" as="geometry" />
        </mxCell>
        <mxCell id="BQ6EWb-jSM-SEZKdU9I8-31" value="" style="edgeStyle=orthogonalEdgeStyle;rounded=0;orthogonalLoop=1;jettySize=auto;html=1;" parent="WIyWlLk6GJQsqaUBKTNV-1" source="BQ6EWb-jSM-SEZKdU9I8-32" target="BQ6EWb-jSM-SEZKdU9I8-34" edge="1">
          <mxGeometry relative="1" as="geometry" />
        </mxCell>
        <mxCell id="BQ6EWb-jSM-SEZKdU9I8-32" value="Forgot" style="rounded=1;whiteSpace=wrap;html=1;fillColor=#004C99;strokeColor=#6c8ebf;fontSize=15;fontStyle=1;fontColor=#FFFFFF;" parent="WIyWlLk6GJQsqaUBKTNV-1" vertex="1">
          <mxGeometry x="130" y="570" width="60" height="40" as="geometry" />
        </mxCell>
        <mxCell id="BQ6EWb-jSM-SEZKdU9I8-33" value="" style="edgeStyle=orthogonalEdgeStyle;rounded=0;orthogonalLoop=1;jettySize=auto;html=1;" parent="WIyWlLk6GJQsqaUBKTNV-1" source="BQ6EWb-jSM-SEZKdU9I8-34" target="BQ6EWb-jSM-SEZKdU9I8-36" edge="1">
          <mxGeometry relative="1" as="geometry" />
        </mxCell>
        <mxCell id="BQ6EWb-jSM-SEZKdU9I8-34" value="&lt;div&gt;&lt;span style=&quot;background-color: initial;&quot;&gt;&quot;email&quot;: &quot;user@example.com&quot;,&lt;/span&gt;&lt;br&gt;&lt;/div&gt;&lt;div&gt;&quot;redirect_url&quot;: &quot;string&quot;&lt;/div&gt;" style="text;html=1;strokeColor=#666666;fillColor=#f5f5f5;align=left;verticalAlign=middle;whiteSpace=wrap;rounded=0;fontColor=#333333;" parent="WIyWlLk6GJQsqaUBKTNV-1" vertex="1">
          <mxGeometry x="220" y="557.5" width="190" height="62.5" as="geometry" />
        </mxCell>
        <mxCell id="BQ6EWb-jSM-SEZKdU9I8-35" value="" style="edgeStyle=orthogonalEdgeStyle;rounded=0;orthogonalLoop=1;jettySize=auto;html=1;exitX=1;exitY=0.5;exitDx=0;exitDy=0;" parent="WIyWlLk6GJQsqaUBKTNV-1" source="BQ6EWb-jSM-SEZKdU9I8-36" target="BQ6EWb-jSM-SEZKdU9I8-41" edge="1">
          <mxGeometry relative="1" as="geometry">
            <mxPoint x="780" y="590" as="sourcePoint" />
          </mxGeometry>
        </mxCell>
        <mxCell id="BQ6EWb-jSM-SEZKdU9I8-36" value="/authorization/forgot" style="rounded=1;whiteSpace=wrap;html=1;fillColor=#d5e8d4;strokeColor=#82b366;" parent="WIyWlLk6GJQsqaUBKTNV-1" vertex="1">
          <mxGeometry x="450" y="560" width="120" height="60" as="geometry" />
        </mxCell>
        <mxCell id="BQ6EWb-jSM-SEZKdU9I8-37" style="edgeStyle=orthogonalEdgeStyle;rounded=0;orthogonalLoop=1;jettySize=auto;html=1;entryX=0;entryY=0.5;entryDx=0;entryDy=0;exitX=0.5;exitY=0;exitDx=0;exitDy=0;" parent="WIyWlLk6GJQsqaUBKTNV-1" source="BQ6EWb-jSM-SEZKdU9I8-41" target="BQ6EWb-jSM-SEZKdU9I8-117" edge="1">
          <mxGeometry relative="1" as="geometry">
            <mxPoint x="840" y="500" as="sourcePoint" />
            <mxPoint x="920" y="485" as="targetPoint" />
          </mxGeometry>
        </mxCell>
        <mxCell id="BQ6EWb-jSM-SEZKdU9I8-38" value="Yes" style="edgeLabel;html=1;align=center;verticalAlign=middle;resizable=0;points=[];" parent="BQ6EWb-jSM-SEZKdU9I8-37" vertex="1" connectable="0">
          <mxGeometry x="-0.2727" y="-16" relative="1" as="geometry">
            <mxPoint x="-16" y="24" as="offset" />
          </mxGeometry>
        </mxCell>
        <mxCell id="BQ6EWb-jSM-SEZKdU9I8-39" style="edgeStyle=orthogonalEdgeStyle;rounded=0;orthogonalLoop=1;jettySize=auto;html=1;exitX=0.5;exitY=1;exitDx=0;exitDy=0;entryX=0;entryY=0.5;entryDx=0;entryDy=0;" parent="WIyWlLk6GJQsqaUBKTNV-1" source="BQ6EWb-jSM-SEZKdU9I8-41" target="BQ6EWb-jSM-SEZKdU9I8-47" edge="1">
          <mxGeometry relative="1" as="geometry" />
        </mxCell>
        <mxCell id="BQ6EWb-jSM-SEZKdU9I8-40" value="No" style="edgeLabel;html=1;align=center;verticalAlign=middle;resizable=0;points=[];" parent="BQ6EWb-jSM-SEZKdU9I8-39" vertex="1" connectable="0">
          <mxGeometry x="-0.1077" y="8" relative="1" as="geometry">
            <mxPoint x="12" as="offset" />
          </mxGeometry>
        </mxCell>
        <mxCell id="BQ6EWb-jSM-SEZKdU9I8-41" value="api key&lt;br&gt;valid" style="rhombus;whiteSpace=wrap;html=1;fillColor=#ffe6cc;strokeColor=#d79b00;" parent="WIyWlLk6GJQsqaUBKTNV-1" vertex="1">
          <mxGeometry x="610" y="548.75" width="80" height="80" as="geometry" />
        </mxCell>
        <mxCell id="BQ6EWb-jSM-SEZKdU9I8-47" value="error" style="rounded=1;whiteSpace=wrap;html=1;fillColor=#f8cecc;strokeColor=#b85450;" parent="WIyWlLk6GJQsqaUBKTNV-1" vertex="1">
          <mxGeometry x="720" y="628.75" width="80" height="41.25" as="geometry" />
        </mxCell>
        <mxCell id="BQ6EWb-jSM-SEZKdU9I8-73" value="" style="edgeStyle=orthogonalEdgeStyle;rounded=0;orthogonalLoop=1;jettySize=auto;html=1;" parent="WIyWlLk6GJQsqaUBKTNV-1" source="BQ6EWb-jSM-SEZKdU9I8-74" target="BQ6EWb-jSM-SEZKdU9I8-76" edge="1">
          <mxGeometry relative="1" as="geometry" />
        </mxCell>
        <mxCell id="BQ6EWb-jSM-SEZKdU9I8-74" value="START" style="rounded=1;whiteSpace=wrap;html=1;fillColor=#f5f5f5;gradientColor=#b3b3b3;strokeColor=#666666;" parent="WIyWlLk6GJQsqaUBKTNV-1" vertex="1">
          <mxGeometry x="40" y="944" width="60" height="40" as="geometry" />
        </mxCell>
        <mxCell id="BQ6EWb-jSM-SEZKdU9I8-75" value="" style="edgeStyle=orthogonalEdgeStyle;rounded=0;orthogonalLoop=1;jettySize=auto;html=1;" parent="WIyWlLk6GJQsqaUBKTNV-1" source="BQ6EWb-jSM-SEZKdU9I8-76" target="BQ6EWb-jSM-SEZKdU9I8-78" edge="1">
          <mxGeometry relative="1" as="geometry" />
        </mxCell>
        <mxCell id="BQ6EWb-jSM-SEZKdU9I8-76" value="Recovery" style="rounded=1;whiteSpace=wrap;html=1;fillColor=#004C99;strokeColor=#6c8ebf;fontStyle=1;fontColor=#FFFFFF;" parent="WIyWlLk6GJQsqaUBKTNV-1" vertex="1">
          <mxGeometry x="130" y="944" width="70" height="40" as="geometry" />
        </mxCell>
        <mxCell id="BQ6EWb-jSM-SEZKdU9I8-77" value="" style="edgeStyle=orthogonalEdgeStyle;rounded=0;orthogonalLoop=1;jettySize=auto;html=1;" parent="WIyWlLk6GJQsqaUBKTNV-1" source="BQ6EWb-jSM-SEZKdU9I8-78" target="BQ6EWb-jSM-SEZKdU9I8-80" edge="1">
          <mxGeometry relative="1" as="geometry" />
        </mxCell>
        <mxCell id="BQ6EWb-jSM-SEZKdU9I8-78" value="&lt;div&gt;&lt;span style=&quot;background-color: initial;&quot;&gt;&amp;nbsp; &quot;token&quot;: &quot;string&quot;,&lt;/span&gt;&lt;br&gt;&lt;/div&gt;&lt;div&gt;&amp;nbsp; &quot;email&quot;: &quot;user@example.com&quot;,&lt;/div&gt;&lt;div&gt;&amp;nbsp; &quot;password&quot;: &quot;string&quot;&lt;/div&gt;" style="text;html=1;strokeColor=#666666;fillColor=#f5f5f5;align=left;verticalAlign=middle;whiteSpace=wrap;rounded=0;fontColor=#333333;" parent="WIyWlLk6GJQsqaUBKTNV-1" vertex="1">
          <mxGeometry x="230" y="911.5" width="180" height="105" as="geometry" />
        </mxCell>
        <mxCell id="BQ6EWb-jSM-SEZKdU9I8-79" value="" style="edgeStyle=orthogonalEdgeStyle;rounded=0;orthogonalLoop=1;jettySize=auto;html=1;exitX=1;exitY=0.5;exitDx=0;exitDy=0;" parent="WIyWlLk6GJQsqaUBKTNV-1" source="BQ6EWb-jSM-SEZKdU9I8-80" target="BQ6EWb-jSM-SEZKdU9I8-85" edge="1">
          <mxGeometry relative="1" as="geometry">
            <mxPoint x="780" y="964" as="sourcePoint" />
          </mxGeometry>
        </mxCell>
        <mxCell id="BQ6EWb-jSM-SEZKdU9I8-80" value="/authorization/recovery" style="rounded=1;whiteSpace=wrap;html=1;fillColor=#d5e8d4;strokeColor=#82b366;fontStyle=1" parent="WIyWlLk6GJQsqaUBKTNV-1" vertex="1">
          <mxGeometry x="440" y="934" width="150" height="60" as="geometry" />
        </mxCell>
        <mxCell id="BQ6EWb-jSM-SEZKdU9I8-81" style="edgeStyle=orthogonalEdgeStyle;rounded=0;orthogonalLoop=1;jettySize=auto;html=1;entryX=0;entryY=0.5;entryDx=0;entryDy=0;exitX=0.5;exitY=0;exitDx=0;exitDy=0;" parent="WIyWlLk6GJQsqaUBKTNV-1" source="BQ6EWb-jSM-SEZKdU9I8-85" target="BQ6EWb-jSM-SEZKdU9I8-114" edge="1">
          <mxGeometry relative="1" as="geometry">
            <mxPoint x="840" y="874" as="sourcePoint" />
            <mxPoint x="1100" y="859" as="targetPoint" />
          </mxGeometry>
        </mxCell>
        <mxCell id="BQ6EWb-jSM-SEZKdU9I8-82" value="Yes" style="edgeLabel;html=1;align=center;verticalAlign=middle;resizable=0;points=[];" parent="BQ6EWb-jSM-SEZKdU9I8-81" vertex="1" connectable="0">
          <mxGeometry x="-0.2727" y="-16" relative="1" as="geometry">
            <mxPoint as="offset" />
          </mxGeometry>
        </mxCell>
        <mxCell id="BQ6EWb-jSM-SEZKdU9I8-83" style="edgeStyle=orthogonalEdgeStyle;rounded=0;orthogonalLoop=1;jettySize=auto;html=1;exitX=0.5;exitY=1;exitDx=0;exitDy=0;entryX=0;entryY=0.5;entryDx=0;entryDy=0;" parent="WIyWlLk6GJQsqaUBKTNV-1" source="BQ6EWb-jSM-SEZKdU9I8-85" target="BQ6EWb-jSM-SEZKdU9I8-91" edge="1">
          <mxGeometry relative="1" as="geometry" />
        </mxCell>
        <mxCell id="BQ6EWb-jSM-SEZKdU9I8-84" value="No" style="edgeLabel;html=1;align=center;verticalAlign=middle;resizable=0;points=[];" parent="BQ6EWb-jSM-SEZKdU9I8-83" vertex="1" connectable="0">
          <mxGeometry x="-0.1077" y="8" relative="1" as="geometry">
            <mxPoint x="12" as="offset" />
          </mxGeometry>
        </mxCell>
        <mxCell id="BQ6EWb-jSM-SEZKdU9I8-85" value="api key&lt;br&gt;valid" style="rhombus;whiteSpace=wrap;html=1;fillColor=#ffe6cc;strokeColor=#d79b00;" parent="WIyWlLk6GJQsqaUBKTNV-1" vertex="1">
          <mxGeometry x="620" y="924" width="80" height="80" as="geometry" />
        </mxCell>
        <mxCell id="BQ6EWb-jSM-SEZKdU9I8-91" value="error" style="rounded=1;whiteSpace=wrap;html=1;fillColor=#f8cecc;strokeColor=#b85450;" parent="WIyWlLk6GJQsqaUBKTNV-1" vertex="1">
          <mxGeometry x="725" y="1004" width="90" height="40" as="geometry" />
        </mxCell>
        <mxCell id="BQ6EWb-jSM-SEZKdU9I8-96" value="" style="edgeStyle=orthogonalEdgeStyle;rounded=0;orthogonalLoop=1;jettySize=auto;html=1;" parent="WIyWlLk6GJQsqaUBKTNV-1" source="BQ6EWb-jSM-SEZKdU9I8-97" target="BQ6EWb-jSM-SEZKdU9I8-99" edge="1">
          <mxGeometry relative="1" as="geometry" />
        </mxCell>
        <mxCell id="BQ6EWb-jSM-SEZKdU9I8-97" value="START" style="rounded=1;whiteSpace=wrap;html=1;fillColor=#f5f5f5;gradientColor=#b3b3b3;strokeColor=#666666;" parent="WIyWlLk6GJQsqaUBKTNV-1" vertex="1">
          <mxGeometry x="40" y="1198" width="60" height="37.5" as="geometry" />
        </mxCell>
        <mxCell id="BQ6EWb-jSM-SEZKdU9I8-98" value="" style="edgeStyle=orthogonalEdgeStyle;rounded=0;orthogonalLoop=1;jettySize=auto;html=1;" parent="WIyWlLk6GJQsqaUBKTNV-1" source="BQ6EWb-jSM-SEZKdU9I8-99" target="BQ6EWb-jSM-SEZKdU9I8-101" edge="1">
          <mxGeometry relative="1" as="geometry" />
        </mxCell>
        <mxCell id="BQ6EWb-jSM-SEZKdU9I8-99" value="Decode" style="rounded=1;whiteSpace=wrap;html=1;fillColor=#004C99;strokeColor=#6c8ebf;fontStyle=1;fontSize=15;fontColor=#FFFFFF;" parent="WIyWlLk6GJQsqaUBKTNV-1" vertex="1">
          <mxGeometry x="130" y="1195.5" width="90" height="42.5" as="geometry" />
        </mxCell>
        <mxCell id="BQ6EWb-jSM-SEZKdU9I8-100" value="" style="edgeStyle=orthogonalEdgeStyle;rounded=0;orthogonalLoop=1;jettySize=auto;html=1;" parent="WIyWlLk6GJQsqaUBKTNV-1" source="BQ6EWb-jSM-SEZKdU9I8-101" target="BQ6EWb-jSM-SEZKdU9I8-103" edge="1">
          <mxGeometry relative="1" as="geometry" />
        </mxCell>
        <mxCell id="BQ6EWb-jSM-SEZKdU9I8-101" value="&lt;div&gt;token&lt;/div&gt;" style="text;html=1;strokeColor=#666666;fillColor=#f5f5f5;align=left;verticalAlign=middle;whiteSpace=wrap;rounded=0;fontColor=#333333;" parent="WIyWlLk6GJQsqaUBKTNV-1" vertex="1">
          <mxGeometry x="250" y="1198" width="50" height="35" as="geometry" />
        </mxCell>
        <mxCell id="BQ6EWb-jSM-SEZKdU9I8-102" value="" style="edgeStyle=orthogonalEdgeStyle;rounded=0;orthogonalLoop=1;jettySize=auto;html=1;exitX=1;exitY=0.5;exitDx=0;exitDy=0;" parent="WIyWlLk6GJQsqaUBKTNV-1" source="BQ6EWb-jSM-SEZKdU9I8-103" target="BQ6EWb-jSM-SEZKdU9I8-106" edge="1">
          <mxGeometry relative="1" as="geometry">
            <mxPoint x="760" y="1215.5" as="sourcePoint" />
          </mxGeometry>
        </mxCell>
        <mxCell id="BQ6EWb-jSM-SEZKdU9I8-103" value="/authorization/decode" style="rounded=1;whiteSpace=wrap;html=1;fillColor=#d5e8d4;strokeColor=#82b366;fontStyle=1" parent="WIyWlLk6GJQsqaUBKTNV-1" vertex="1">
          <mxGeometry x="330" y="1185.5" width="150" height="60" as="geometry" />
        </mxCell>
        <mxCell id="BQ6EWb-jSM-SEZKdU9I8-104" style="edgeStyle=orthogonalEdgeStyle;rounded=0;orthogonalLoop=1;jettySize=auto;html=1;exitX=0.5;exitY=1;exitDx=0;exitDy=0;entryX=0;entryY=0.5;entryDx=0;entryDy=0;" parent="WIyWlLk6GJQsqaUBKTNV-1" source="BQ6EWb-jSM-SEZKdU9I8-106" target="BQ6EWb-jSM-SEZKdU9I8-107" edge="1">
          <mxGeometry relative="1" as="geometry" />
        </mxCell>
        <mxCell id="BQ6EWb-jSM-SEZKdU9I8-105" value="No" style="edgeLabel;html=1;align=center;verticalAlign=middle;resizable=0;points=[];" parent="BQ6EWb-jSM-SEZKdU9I8-104" vertex="1" connectable="0">
          <mxGeometry x="-0.1077" y="8" relative="1" as="geometry">
            <mxPoint x="12" as="offset" />
          </mxGeometry>
        </mxCell>
        <mxCell id="BQ6EWb-jSM-SEZKdU9I8-110" style="edgeStyle=orthogonalEdgeStyle;curved=1;rounded=0;orthogonalLoop=1;jettySize=auto;html=1;entryX=0;entryY=0.5;entryDx=0;entryDy=0;fontFamily=Helvetica;fontSize=12;" parent="WIyWlLk6GJQsqaUBKTNV-1" source="BQ6EWb-jSM-SEZKdU9I8-106" target="BQ6EWb-jSM-SEZKdU9I8-120" edge="1">
          <mxGeometry relative="1" as="geometry" />
        </mxCell>
        <mxCell id="BQ6EWb-jSM-SEZKdU9I8-106" value="api key&lt;br&gt;valid" style="rhombus;whiteSpace=wrap;html=1;fillColor=#ffe6cc;strokeColor=#d79b00;" parent="WIyWlLk6GJQsqaUBKTNV-1" vertex="1">
          <mxGeometry x="510" y="1175.5" width="80" height="80" as="geometry" />
        </mxCell>
        <mxCell id="BQ6EWb-jSM-SEZKdU9I8-107" value="error" style="rounded=1;whiteSpace=wrap;html=1;fillColor=#f8cecc;strokeColor=#b85450;" parent="WIyWlLk6GJQsqaUBKTNV-1" vertex="1">
          <mxGeometry x="650" y="1273" width="80" height="40" as="geometry" />
        </mxCell>
        <mxCell id="BQ6EWb-jSM-SEZKdU9I8-109" value="&lt;span style=&quot;color: rgb(0, 0, 0); font-family: &amp;quot;Times New Roman&amp;quot;; font-size: medium;&quot;&gt;{&lt;br&gt;&quot;email&quot;: &quot;username@mail.com&quot;,&lt;br&gt;&quot;type&quot;: &quot;forgot&quot;&lt;br&gt;}&lt;/span&gt;" style="text;html=1;strokeColor=#666666;fillColor=#f5f5f5;align=left;verticalAlign=middle;whiteSpace=wrap;rounded=0;fontColor=#333333;fontSize=12;fontFamily=Helvetica;" parent="WIyWlLk6GJQsqaUBKTNV-1" vertex="1">
          <mxGeometry x="805" y="1170.5" width="255" height="92.5" as="geometry" />
        </mxCell>
        <mxCell id="BQ6EWb-jSM-SEZKdU9I8-111" value="&lt;span style=&quot;color: rgb(0, 0, 0); font-family: &amp;quot;Times New Roman&amp;quot;; font-size: medium; font-style: normal; font-variant-ligatures: normal; font-variant-caps: normal; font-weight: 400; letter-spacing: normal; orphans: 2; text-align: start; text-indent: 0px; text-transform: none; widows: 2; word-spacing: 0px; -webkit-text-stroke-width: 0px; text-decoration-thickness: initial; text-decoration-style: initial; text-decoration-color: initial; float: none; display: inline !important;&quot;&gt;{&#xa;  &quot;message&quot;: &quot;Password updated successfully&quot;&#xa;}&lt;/span&gt;" style="text;whiteSpace=wrap;html=1;fontSize=12;fontFamily=Helvetica;fillColor=#eeeeee;strokeColor=#36393d;" parent="WIyWlLk6GJQsqaUBKTNV-1" vertex="1">
          <mxGeometry x="850" y="864" width="320" height="80" as="geometry" />
        </mxCell>
        <mxCell id="BQ6EWb-jSM-SEZKdU9I8-115" value="" style="edgeStyle=orthogonalEdgeStyle;curved=1;rounded=0;orthogonalLoop=1;jettySize=auto;html=1;fontFamily=Helvetica;fontSize=12;" parent="WIyWlLk6GJQsqaUBKTNV-1" source="BQ6EWb-jSM-SEZKdU9I8-114" target="BQ6EWb-jSM-SEZKdU9I8-111" edge="1">
          <mxGeometry relative="1" as="geometry" />
        </mxCell>
        <mxCell id="BQ6EWb-jSM-SEZKdU9I8-116" style="edgeStyle=orthogonalEdgeStyle;curved=1;rounded=0;orthogonalLoop=1;jettySize=auto;html=1;entryX=0.5;entryY=0;entryDx=0;entryDy=0;fontFamily=Helvetica;fontSize=12;" parent="WIyWlLk6GJQsqaUBKTNV-1" source="BQ6EWb-jSM-SEZKdU9I8-114" target="BQ6EWb-jSM-SEZKdU9I8-91" edge="1">
          <mxGeometry relative="1" as="geometry" />
        </mxCell>
        <mxCell id="BQ6EWb-jSM-SEZKdU9I8-114" value="code" style="shape=process;whiteSpace=wrap;html=1;backgroundOutline=1;fontFamily=Helvetica;fontSize=12;fillColor=#ffe6cc;strokeColor=#d79b00;" parent="WIyWlLk6GJQsqaUBKTNV-1" vertex="1">
          <mxGeometry x="735" y="884" width="70" height="40" as="geometry" />
        </mxCell>
        <mxCell id="BQ6EWb-jSM-SEZKdU9I8-118" value="" style="edgeStyle=orthogonalEdgeStyle;curved=1;rounded=0;orthogonalLoop=1;jettySize=auto;html=1;fontFamily=Helvetica;fontSize=12;entryX=0;entryY=0.5;entryDx=0;entryDy=0;" parent="WIyWlLk6GJQsqaUBKTNV-1" source="BQ6EWb-jSM-SEZKdU9I8-117" target="BQ6EWb-jSM-SEZKdU9I8-169" edge="1">
          <mxGeometry relative="1" as="geometry">
            <mxPoint x="1045" y="507.5999999999999" as="targetPoint" />
          </mxGeometry>
        </mxCell>
        <mxCell id="BQ6EWb-jSM-SEZKdU9I8-119" style="edgeStyle=orthogonalEdgeStyle;curved=1;rounded=0;orthogonalLoop=1;jettySize=auto;html=1;entryX=0.5;entryY=0;entryDx=0;entryDy=0;fontFamily=Helvetica;fontSize=12;" parent="WIyWlLk6GJQsqaUBKTNV-1" source="BQ6EWb-jSM-SEZKdU9I8-117" target="BQ6EWb-jSM-SEZKdU9I8-47" edge="1">
          <mxGeometry relative="1" as="geometry" />
        </mxCell>
        <mxCell id="BQ6EWb-jSM-SEZKdU9I8-117" value="code" style="shape=process;whiteSpace=wrap;html=1;backgroundOutline=1;fontFamily=Helvetica;fontSize=12;fillColor=#ffe6cc;strokeColor=#d79b00;" parent="WIyWlLk6GJQsqaUBKTNV-1" vertex="1">
          <mxGeometry x="720" y="490" width="80" height="40" as="geometry" />
        </mxCell>
        <mxCell id="BQ6EWb-jSM-SEZKdU9I8-121" style="edgeStyle=orthogonalEdgeStyle;curved=1;rounded=0;orthogonalLoop=1;jettySize=auto;html=1;exitX=1;exitY=0.5;exitDx=0;exitDy=0;entryX=0;entryY=0.5;entryDx=0;entryDy=0;fontFamily=Helvetica;fontSize=12;" parent="WIyWlLk6GJQsqaUBKTNV-1" source="BQ6EWb-jSM-SEZKdU9I8-120" target="BQ6EWb-jSM-SEZKdU9I8-109" edge="1">
          <mxGeometry relative="1" as="geometry" />
        </mxCell>
        <mxCell id="BQ6EWb-jSM-SEZKdU9I8-122" style="edgeStyle=orthogonalEdgeStyle;curved=1;rounded=0;orthogonalLoop=1;jettySize=auto;html=1;entryX=0.5;entryY=0;entryDx=0;entryDy=0;fontFamily=Helvetica;fontSize=12;" parent="WIyWlLk6GJQsqaUBKTNV-1" source="BQ6EWb-jSM-SEZKdU9I8-120" target="BQ6EWb-jSM-SEZKdU9I8-107" edge="1">
          <mxGeometry relative="1" as="geometry" />
        </mxCell>
        <mxCell id="BQ6EWb-jSM-SEZKdU9I8-120" value="code" style="shape=process;whiteSpace=wrap;html=1;backgroundOutline=1;fontFamily=Helvetica;fontSize=12;fillColor=#ffe6cc;strokeColor=#d79b00;" parent="WIyWlLk6GJQsqaUBKTNV-1" vertex="1">
          <mxGeometry x="650" y="1198" width="80" height="36.25" as="geometry" />
        </mxCell>
        <mxCell id="BQ6EWb-jSM-SEZKdU9I8-124" value="" style="edgeStyle=orthogonalEdgeStyle;curved=1;rounded=0;orthogonalLoop=1;jettySize=auto;html=1;fontFamily=Helvetica;fontSize=13;" parent="WIyWlLk6GJQsqaUBKTNV-1" source="BQ6EWb-jSM-SEZKdU9I8-123" target="BQ6EWb-jSM-SEZKdU9I8-23" edge="1">
          <mxGeometry relative="1" as="geometry" />
        </mxCell>
        <mxCell id="BQ6EWb-jSM-SEZKdU9I8-125" style="edgeStyle=orthogonalEdgeStyle;rounded=0;orthogonalLoop=1;jettySize=auto;html=1;entryX=1;entryY=0.5;entryDx=0;entryDy=0;fontFamily=Helvetica;fontSize=13;exitX=0.5;exitY=1;exitDx=0;exitDy=0;" parent="WIyWlLk6GJQsqaUBKTNV-1" source="BQ6EWb-jSM-SEZKdU9I8-123" target="BQ6EWb-jSM-SEZKdU9I8-17" edge="1">
          <mxGeometry relative="1" as="geometry" />
        </mxCell>
        <mxCell id="BQ6EWb-jSM-SEZKdU9I8-123" value="code" style="shape=process;whiteSpace=wrap;html=1;backgroundOutline=1;fontFamily=Helvetica;fontSize=12;fillColor=#ffe6cc;strokeColor=#d79b00;" parent="WIyWlLk6GJQsqaUBKTNV-1" vertex="1">
          <mxGeometry x="735" y="142.5" width="80" height="45" as="geometry" />
        </mxCell>
        <mxCell id="BQ6EWb-jSM-SEZKdU9I8-126" value="" style="edgeStyle=orthogonalEdgeStyle;rounded=0;orthogonalLoop=1;jettySize=auto;html=1;" parent="WIyWlLk6GJQsqaUBKTNV-1" source="BQ6EWb-jSM-SEZKdU9I8-127" target="BQ6EWb-jSM-SEZKdU9I8-129" edge="1">
          <mxGeometry relative="1" as="geometry" />
        </mxCell>
        <mxCell id="BQ6EWb-jSM-SEZKdU9I8-127" value="START" style="rounded=1;whiteSpace=wrap;html=1;fillColor=#f5f5f5;gradientColor=#b3b3b3;strokeColor=#666666;" parent="WIyWlLk6GJQsqaUBKTNV-1" vertex="1">
          <mxGeometry x="49.38000000000011" y="2778.88" width="60" height="38.75" as="geometry" />
        </mxCell>
        <mxCell id="BQ6EWb-jSM-SEZKdU9I8-143" style="edgeStyle=orthogonalEdgeStyle;rounded=0;orthogonalLoop=1;jettySize=auto;html=1;exitX=1;exitY=0.5;exitDx=0;exitDy=0;fontFamily=Helvetica;fontSize=13;" parent="WIyWlLk6GJQsqaUBKTNV-1" source="BQ6EWb-jSM-SEZKdU9I8-129" target="BQ6EWb-jSM-SEZKdU9I8-142" edge="1">
          <mxGeometry relative="1" as="geometry" />
        </mxCell>
        <mxCell id="BQ6EWb-jSM-SEZKdU9I8-144" style="edgeStyle=orthogonalEdgeStyle;rounded=0;orthogonalLoop=1;jettySize=auto;html=1;exitX=1;exitY=0.5;exitDx=0;exitDy=0;entryX=0;entryY=0.5;entryDx=0;entryDy=0;fontFamily=Helvetica;fontSize=13;" parent="WIyWlLk6GJQsqaUBKTNV-1" source="BQ6EWb-jSM-SEZKdU9I8-129" target="BQ6EWb-jSM-SEZKdU9I8-131" edge="1">
          <mxGeometry relative="1" as="geometry" />
        </mxCell>
        <mxCell id="BQ6EWb-jSM-SEZKdU9I8-129" value="Create User" style="rounded=1;whiteSpace=wrap;html=1;fillColor=#004C99;strokeColor=#6c8ebf;fontStyle=1;fontSize=15;fontColor=#FFFFFF;" parent="WIyWlLk6GJQsqaUBKTNV-1" vertex="1">
          <mxGeometry x="139.3800000000001" y="2768.25" width="80" height="60" as="geometry" />
        </mxCell>
        <mxCell id="BQ6EWb-jSM-SEZKdU9I8-146" style="edgeStyle=orthogonalEdgeStyle;rounded=0;orthogonalLoop=1;jettySize=auto;html=1;entryX=0;entryY=0.5;entryDx=0;entryDy=0;fontFamily=Helvetica;fontSize=13;" parent="WIyWlLk6GJQsqaUBKTNV-1" source="BQ6EWb-jSM-SEZKdU9I8-131" target="BQ6EWb-jSM-SEZKdU9I8-133" edge="1">
          <mxGeometry relative="1" as="geometry" />
        </mxCell>
        <mxCell id="BQ6EWb-jSM-SEZKdU9I8-131" value="&lt;div&gt;{&lt;/div&gt;&lt;div&gt;&amp;nbsp; &quot;first_name&quot;: &quot;string&quot;,&lt;/div&gt;&lt;div&gt;&amp;nbsp; &quot;last_name&quot;: &quot;string&quot;,&lt;/div&gt;&lt;div&gt;&amp;nbsp; &quot;email&quot;: &quot;user@example.com&quot;,&lt;/div&gt;&lt;div&gt;&amp;nbsp; &quot;phone&quot;: &quot;string&quot;,&lt;/div&gt;&lt;div&gt;&amp;nbsp; &quot;role_id&quot;: 0,&lt;/div&gt;&lt;div&gt;&amp;nbsp; &quot;company_id&quot;: 0,&lt;/div&gt;&lt;div&gt;&amp;nbsp; &quot;status&quot;: &quot;pending&quot;,&lt;/div&gt;&lt;div&gt;&amp;nbsp; &quot;active&quot;: true,&lt;/div&gt;&lt;div&gt;&amp;nbsp; &quot;userapp_id&quot;: 0&lt;/div&gt;&lt;div&gt;}&lt;/div&gt;" style="text;html=1;strokeColor=#666666;fillColor=#f5f5f5;align=left;verticalAlign=middle;whiteSpace=wrap;rounded=0;fontColor=#333333;" parent="WIyWlLk6GJQsqaUBKTNV-1" vertex="1">
          <mxGeometry x="269.3800000000001" y="2797" width="180" height="171.25" as="geometry" />
        </mxCell>
        <mxCell id="BQ6EWb-jSM-SEZKdU9I8-132" value="" style="edgeStyle=orthogonalEdgeStyle;rounded=0;orthogonalLoop=1;jettySize=auto;html=1;exitX=1;exitY=0.5;exitDx=0;exitDy=0;entryX=0;entryY=0.5;entryDx=0;entryDy=0;" parent="WIyWlLk6GJQsqaUBKTNV-1" source="BQ6EWb-jSM-SEZKdU9I8-133" target="BQ6EWb-jSM-SEZKdU9I8-137" edge="1">
          <mxGeometry relative="1" as="geometry">
            <mxPoint x="801.3800000000001" y="2798.25" as="sourcePoint" />
            <Array as="points">
              <mxPoint x="809.3800000000001" y="2798" />
              <mxPoint x="809.3800000000001" y="2584" />
            </Array>
          </mxGeometry>
        </mxCell>
        <mxCell id="BQ6EWb-jSM-SEZKdU9I8-133" value="/portal_users/create" style="rounded=1;whiteSpace=wrap;html=1;fillColor=#d5e8d4;strokeColor=#82b366;fontStyle=1" parent="WIyWlLk6GJQsqaUBKTNV-1" vertex="1">
          <mxGeometry x="499.3800000000001" y="2768.25" width="130" height="60" as="geometry" />
        </mxCell>
        <mxCell id="BQ6EWb-jSM-SEZKdU9I8-134" style="edgeStyle=orthogonalEdgeStyle;rounded=0;orthogonalLoop=1;jettySize=auto;html=1;exitX=0.5;exitY=1;exitDx=0;exitDy=0;entryX=0.5;entryY=0;entryDx=0;entryDy=0;" parent="WIyWlLk6GJQsqaUBKTNV-1" source="BQ6EWb-jSM-SEZKdU9I8-137" target="BQ6EWb-jSM-SEZKdU9I8-147" edge="1">
          <mxGeometry relative="1" as="geometry">
            <mxPoint x="1153.38" y="2571.75" as="targetPoint" />
          </mxGeometry>
        </mxCell>
        <mxCell id="BQ6EWb-jSM-SEZKdU9I8-135" value="No" style="edgeLabel;html=1;align=center;verticalAlign=middle;resizable=0;points=[];" parent="BQ6EWb-jSM-SEZKdU9I8-134" vertex="1" connectable="0">
          <mxGeometry x="-0.1077" y="8" relative="1" as="geometry">
            <mxPoint x="20" y="5" as="offset" />
          </mxGeometry>
        </mxCell>
        <mxCell id="BQ6EWb-jSM-SEZKdU9I8-149" value="" style="edgeStyle=orthogonalEdgeStyle;curved=1;rounded=0;orthogonalLoop=1;jettySize=auto;html=1;fontFamily=Helvetica;fontSize=13;" parent="WIyWlLk6GJQsqaUBKTNV-1" source="BQ6EWb-jSM-SEZKdU9I8-137" target="BQ6EWb-jSM-SEZKdU9I8-148" edge="1">
          <mxGeometry relative="1" as="geometry" />
        </mxCell>
        <mxCell id="BQ6EWb-jSM-SEZKdU9I8-137" value="api key&lt;br&gt;valid" style="rhombus;whiteSpace=wrap;html=1;fillColor=#ffe6cc;strokeColor=#d79b00;" parent="WIyWlLk6GJQsqaUBKTNV-1" vertex="1">
          <mxGeometry x="841.3800000000001" y="2544" width="80" height="80" as="geometry" />
        </mxCell>
        <mxCell id="BQ6EWb-jSM-SEZKdU9I8-165" value="" style="edgeStyle=orthogonalEdgeStyle;curved=1;rounded=0;orthogonalLoop=1;jettySize=auto;html=1;fontFamily=Helvetica;fontSize=13;" parent="WIyWlLk6GJQsqaUBKTNV-1" source="BQ6EWb-jSM-SEZKdU9I8-141" target="BQ6EWb-jSM-SEZKdU9I8-164" edge="1">
          <mxGeometry relative="1" as="geometry" />
        </mxCell>
        <mxCell id="BQ6EWb-jSM-SEZKdU9I8-167" style="edgeStyle=orthogonalEdgeStyle;rounded=0;orthogonalLoop=1;jettySize=auto;html=1;entryX=1;entryY=0.5;entryDx=0;entryDy=0;fontFamily=Helvetica;fontSize=13;exitX=0.5;exitY=1;exitDx=0;exitDy=0;" parent="WIyWlLk6GJQsqaUBKTNV-1" source="BQ6EWb-jSM-SEZKdU9I8-141" target="BQ6EWb-jSM-SEZKdU9I8-147" edge="1">
          <mxGeometry relative="1" as="geometry" />
        </mxCell>
        <mxCell id="BQ6EWb-jSM-SEZKdU9I8-141" value="code" style="shape=process;whiteSpace=wrap;html=1;backgroundOutline=1;fontFamily=Helvetica;fontSize=12;fillColor=#ffe6cc;strokeColor=#d79b00;" parent="WIyWlLk6GJQsqaUBKTNV-1" vertex="1">
          <mxGeometry x="1376.38" y="2560.5" width="120" height="47.5" as="geometry" />
        </mxCell>
        <mxCell id="BQ6EWb-jSM-SEZKdU9I8-145" style="edgeStyle=orthogonalEdgeStyle;rounded=0;orthogonalLoop=1;jettySize=auto;html=1;entryX=0;entryY=0.5;entryDx=0;entryDy=0;fontFamily=Helvetica;fontSize=13;" parent="WIyWlLk6GJQsqaUBKTNV-1" source="BQ6EWb-jSM-SEZKdU9I8-142" target="BQ6EWb-jSM-SEZKdU9I8-133" edge="1">
          <mxGeometry relative="1" as="geometry" />
        </mxCell>
        <mxCell id="BQ6EWb-jSM-SEZKdU9I8-142" value="current_user_email" style="text;html=1;strokeColor=#666666;fillColor=#f5f5f5;align=left;verticalAlign=middle;whiteSpace=wrap;rounded=0;fontColor=#333333;" parent="WIyWlLk6GJQsqaUBKTNV-1" vertex="1">
          <mxGeometry x="269.3800000000001" y="2739.5" width="180" height="35" as="geometry" />
        </mxCell>
        <mxCell id="BQ6EWb-jSM-SEZKdU9I8-147" value="error" style="rounded=1;whiteSpace=wrap;html=1;fillColor=#f8cecc;strokeColor=#b85450;" parent="WIyWlLk6GJQsqaUBKTNV-1" vertex="1">
          <mxGeometry x="976.3800000000001" y="2820.5" width="120" height="60" as="geometry" />
        </mxCell>
        <mxCell id="BQ6EWb-jSM-SEZKdU9I8-150" value="" style="edgeStyle=orthogonalEdgeStyle;rounded=0;orthogonalLoop=1;jettySize=auto;html=1;fontFamily=Helvetica;fontSize=13;" parent="WIyWlLk6GJQsqaUBKTNV-1" source="BQ6EWb-jSM-SEZKdU9I8-148" target="BQ6EWb-jSM-SEZKdU9I8-147" edge="1">
          <mxGeometry relative="1" as="geometry" />
        </mxCell>
        <mxCell id="BQ6EWb-jSM-SEZKdU9I8-151" value="Yes" style="edgeLabel;html=1;align=center;verticalAlign=middle;resizable=0;points=[];fontSize=13;fontFamily=Helvetica;" parent="BQ6EWb-jSM-SEZKdU9I8-150" vertex="1" connectable="0">
          <mxGeometry x="-0.4887" y="-5" relative="1" as="geometry">
            <mxPoint x="5" y="-13" as="offset" />
          </mxGeometry>
        </mxCell>
        <mxCell id="BQ6EWb-jSM-SEZKdU9I8-153" value="" style="edgeStyle=orthogonalEdgeStyle;curved=1;rounded=0;orthogonalLoop=1;jettySize=auto;html=1;fontFamily=Helvetica;fontSize=13;" parent="WIyWlLk6GJQsqaUBKTNV-1" source="BQ6EWb-jSM-SEZKdU9I8-148" target="BQ6EWb-jSM-SEZKdU9I8-152" edge="1">
          <mxGeometry relative="1" as="geometry" />
        </mxCell>
        <mxCell id="BQ6EWb-jSM-SEZKdU9I8-148" value="existing&lt;br&gt;email" style="rhombus;whiteSpace=wrap;html=1;fillColor=#ffe6cc;strokeColor=#d79b00;" parent="WIyWlLk6GJQsqaUBKTNV-1" vertex="1">
          <mxGeometry x="946.3800000000001" y="2545.5" width="80" height="80" as="geometry" />
        </mxCell>
        <mxCell id="BQ6EWb-jSM-SEZKdU9I8-154" style="edgeStyle=orthogonalEdgeStyle;rounded=0;orthogonalLoop=1;jettySize=auto;html=1;exitX=0.5;exitY=1;exitDx=0;exitDy=0;entryX=0.5;entryY=0;entryDx=0;entryDy=0;fontFamily=Helvetica;fontSize=13;" parent="WIyWlLk6GJQsqaUBKTNV-1" source="BQ6EWb-jSM-SEZKdU9I8-152" target="BQ6EWb-jSM-SEZKdU9I8-147" edge="1">
          <mxGeometry relative="1" as="geometry" />
        </mxCell>
        <mxCell id="BQ6EWb-jSM-SEZKdU9I8-155" value="No" style="edgeLabel;html=1;align=center;verticalAlign=middle;resizable=0;points=[];fontSize=13;fontFamily=Helvetica;" parent="BQ6EWb-jSM-SEZKdU9I8-154" vertex="1" connectable="0">
          <mxGeometry x="-0.3091" y="-14" relative="1" as="geometry">
            <mxPoint as="offset" />
          </mxGeometry>
        </mxCell>
        <mxCell id="BQ6EWb-jSM-SEZKdU9I8-158" value="" style="edgeStyle=orthogonalEdgeStyle;curved=1;rounded=0;orthogonalLoop=1;jettySize=auto;html=1;fontFamily=Helvetica;fontSize=13;" parent="WIyWlLk6GJQsqaUBKTNV-1" source="BQ6EWb-jSM-SEZKdU9I8-152" target="BQ6EWb-jSM-SEZKdU9I8-157" edge="1">
          <mxGeometry relative="1" as="geometry" />
        </mxCell>
        <mxCell id="BQ6EWb-jSM-SEZKdU9I8-152" value="role 1 or role 2 and same company" style="rhombus;whiteSpace=wrap;html=1;fillColor=#ffe6cc;strokeColor=#d79b00;" parent="WIyWlLk6GJQsqaUBKTNV-1" vertex="1">
          <mxGeometry x="1056.38" y="2545.5" width="80" height="80" as="geometry" />
        </mxCell>
        <mxCell id="BQ6EWb-jSM-SEZKdU9I8-160" value="" style="edgeStyle=orthogonalEdgeStyle;curved=1;rounded=0;orthogonalLoop=1;jettySize=auto;html=1;fontFamily=Helvetica;fontSize=13;entryX=0;entryY=0.5;entryDx=0;entryDy=0;" parent="WIyWlLk6GJQsqaUBKTNV-1" source="BQ6EWb-jSM-SEZKdU9I8-157" target="BQ6EWb-jSM-SEZKdU9I8-141" edge="1">
          <mxGeometry relative="1" as="geometry">
            <mxPoint x="1556.38" y="2471.8" as="targetPoint" />
          </mxGeometry>
        </mxCell>
        <mxCell id="BQ6EWb-jSM-SEZKdU9I8-161" value="valid value or&lt;br&gt;removed from&amp;nbsp;&lt;br&gt;request body" style="edgeLabel;html=1;align=center;verticalAlign=middle;resizable=0;points=[];fontSize=13;fontFamily=Helvetica;" parent="BQ6EWb-jSM-SEZKdU9I8-160" vertex="1" connectable="0">
          <mxGeometry x="-0.1371" y="-1" relative="1" as="geometry">
            <mxPoint as="offset" />
          </mxGeometry>
        </mxCell>
        <mxCell id="BQ6EWb-jSM-SEZKdU9I8-162" style="edgeStyle=orthogonalEdgeStyle;rounded=0;orthogonalLoop=1;jettySize=auto;html=1;entryX=0.5;entryY=0;entryDx=0;entryDy=0;fontFamily=Helvetica;fontSize=13;exitX=0.5;exitY=1;exitDx=0;exitDy=0;" parent="WIyWlLk6GJQsqaUBKTNV-1" source="BQ6EWb-jSM-SEZKdU9I8-157" target="BQ6EWb-jSM-SEZKdU9I8-147" edge="1">
          <mxGeometry relative="1" as="geometry" />
        </mxCell>
        <mxCell id="BQ6EWb-jSM-SEZKdU9I8-163" value="Wrong" style="edgeLabel;html=1;align=center;verticalAlign=middle;resizable=0;points=[];fontSize=13;fontFamily=Helvetica;" parent="BQ6EWb-jSM-SEZKdU9I8-162" vertex="1" connectable="0">
          <mxGeometry x="-0.1613" y="-2" relative="1" as="geometry">
            <mxPoint as="offset" />
          </mxGeometry>
        </mxCell>
        <mxCell id="BQ6EWb-jSM-SEZKdU9I8-157" value="&lt;span style=&quot;font-size: 13px; text-align: left;&quot;&gt;check the field userapp&lt;/span&gt;" style="rhombus;whiteSpace=wrap;html=1;fillColor=#ffe6cc;strokeColor=#d79b00;" parent="WIyWlLk6GJQsqaUBKTNV-1" vertex="1">
          <mxGeometry x="1166.38" y="2545.5" width="80" height="80" as="geometry" />
        </mxCell>
        <mxCell id="BQ6EWb-jSM-SEZKdU9I8-170" value="" style="edgeStyle=orthogonalEdgeStyle;curved=1;rounded=0;orthogonalLoop=1;jettySize=auto;html=1;fontFamily=Helvetica;fontSize=13;" parent="WIyWlLk6GJQsqaUBKTNV-1" source="BQ6EWb-jSM-SEZKdU9I8-164" target="BQ6EWb-jSM-SEZKdU9I8-168" edge="1">
          <mxGeometry relative="1" as="geometry" />
        </mxCell>
        <mxCell id="BQ6EWb-jSM-SEZKdU9I8-164" value="&lt;font size=&quot;3&quot; face=&quot;Times New Roman&quot; color=&quot;#000000&quot;&gt;User created in the DB with status = pending&lt;/font&gt;" style="text;html=1;strokeColor=#666666;fillColor=#f5f5f5;align=left;verticalAlign=middle;whiteSpace=wrap;rounded=0;fontColor=#333333;fontSize=12;fontFamily=Helvetica;" parent="WIyWlLk6GJQsqaUBKTNV-1" vertex="1">
          <mxGeometry x="1546.38" y="2538" width="160" height="92.5" as="geometry" />
        </mxCell>
        <mxCell id="BQ6EWb-jSM-SEZKdU9I8-175" value="" style="edgeStyle=orthogonalEdgeStyle;curved=1;rounded=0;orthogonalLoop=1;jettySize=auto;html=1;fontFamily=Helvetica;fontSize=13;" parent="WIyWlLk6GJQsqaUBKTNV-1" source="BQ6EWb-jSM-SEZKdU9I8-168" target="BQ6EWb-jSM-SEZKdU9I8-174" edge="1">
          <mxGeometry relative="1" as="geometry" />
        </mxCell>
        <mxCell id="BQ6EWb-jSM-SEZKdU9I8-168" value="&lt;p&gt;send email with link to create a password&lt;/p&gt;&lt;p&gt;(token included valid for 30 minutes)&lt;/p&gt;&lt;p&gt;&lt;b&gt;type = accept&lt;/b&gt;&lt;/p&gt;&lt;p&gt;POSTMARK service&lt;/p&gt;" style="rounded=0;whiteSpace=wrap;html=1;fontFamily=Helvetica;fontSize=13;fillColor=#f5f5f5;fontColor=#333333;strokeColor=#666666;" parent="WIyWlLk6GJQsqaUBKTNV-1" vertex="1">
          <mxGeometry x="1496.38" y="2720.5" width="260" height="70" as="geometry" />
        </mxCell>
        <mxCell id="BQ6EWb-jSM-SEZKdU9I8-173" value="" style="edgeStyle=orthogonalEdgeStyle;curved=1;rounded=0;orthogonalLoop=1;jettySize=auto;html=1;fontFamily=Helvetica;fontSize=13;" parent="WIyWlLk6GJQsqaUBKTNV-1" source="BQ6EWb-jSM-SEZKdU9I8-169" target="BQ6EWb-jSM-SEZKdU9I8-172" edge="1">
          <mxGeometry relative="1" as="geometry" />
        </mxCell>
        <mxCell id="BQ6EWb-jSM-SEZKdU9I8-169" value="&lt;p&gt;send email with link to create a password&lt;/p&gt;&lt;p&gt;(token included valid for 30 minutes)&lt;/p&gt;&lt;p&gt;type = forgot&lt;/p&gt;&lt;p&gt;POSTMARK service&lt;/p&gt;" style="rounded=0;whiteSpace=wrap;html=1;fontFamily=Helvetica;fontSize=13;fillColor=#f5f5f5;fontColor=#333333;strokeColor=#666666;" parent="WIyWlLk6GJQsqaUBKTNV-1" vertex="1">
          <mxGeometry x="840" y="475" width="260" height="70" as="geometry" />
        </mxCell>
        <mxCell id="BQ6EWb-jSM-SEZKdU9I8-172" value="Recovery" style="rounded=1;whiteSpace=wrap;html=1;fillColor=#004C99;strokeColor=#6c8ebf;fontSize=15;fontStyle=1;fontColor=#FFFFFF;" parent="WIyWlLk6GJQsqaUBKTNV-1" vertex="1">
          <mxGeometry x="910" y="619.38" width="120" height="60" as="geometry" />
        </mxCell>
        <mxCell id="BQ6EWb-jSM-SEZKdU9I8-174" value="Recovery" style="rounded=1;whiteSpace=wrap;html=1;fillColor=#004C99;strokeColor=#6c8ebf;fontColor=#FFFFFF;fontStyle=1" parent="WIyWlLk6GJQsqaUBKTNV-1" vertex="1">
          <mxGeometry x="1567.38" y="2850.5" width="120" height="60" as="geometry" />
        </mxCell>
        <mxCell id="BQ6EWb-jSM-SEZKdU9I8-179" value="" style="edgeStyle=orthogonalEdgeStyle;rounded=0;orthogonalLoop=1;jettySize=auto;html=1;" parent="WIyWlLk6GJQsqaUBKTNV-1" source="BQ6EWb-jSM-SEZKdU9I8-180" target="BQ6EWb-jSM-SEZKdU9I8-182" edge="1">
          <mxGeometry relative="1" as="geometry" />
        </mxCell>
        <mxCell id="BQ6EWb-jSM-SEZKdU9I8-180" value="START" style="rounded=1;whiteSpace=wrap;html=1;fillColor=#f5f5f5;gradientColor=#b3b3b3;strokeColor=#666666;" parent="WIyWlLk6GJQsqaUBKTNV-1" vertex="1">
          <mxGeometry x="25" y="1543.12" width="60" height="37.5" as="geometry" />
        </mxCell>
        <mxCell id="BQ6EWb-jSM-SEZKdU9I8-181" value="" style="edgeStyle=orthogonalEdgeStyle;rounded=0;orthogonalLoop=1;jettySize=auto;html=1;" parent="WIyWlLk6GJQsqaUBKTNV-1" source="BQ6EWb-jSM-SEZKdU9I8-182" target="BQ6EWb-jSM-SEZKdU9I8-184" edge="1">
          <mxGeometry relative="1" as="geometry" />
        </mxCell>
        <mxCell id="BQ6EWb-jSM-SEZKdU9I8-182" value="User Profile" style="rounded=1;whiteSpace=wrap;html=1;fillColor=#004C99;strokeColor=#6c8ebf;fontStyle=1;fontSize=15;fontColor=#FFFFFF;" parent="WIyWlLk6GJQsqaUBKTNV-1" vertex="1">
          <mxGeometry x="115" y="1540.62" width="90" height="42.5" as="geometry" />
        </mxCell>
        <mxCell id="BQ6EWb-jSM-SEZKdU9I8-183" value="" style="edgeStyle=orthogonalEdgeStyle;rounded=0;orthogonalLoop=1;jettySize=auto;html=1;" parent="WIyWlLk6GJQsqaUBKTNV-1" source="BQ6EWb-jSM-SEZKdU9I8-184" target="BQ6EWb-jSM-SEZKdU9I8-186" edge="1">
          <mxGeometry relative="1" as="geometry" />
        </mxCell>
        <mxCell id="BQ6EWb-jSM-SEZKdU9I8-184" value="&lt;div&gt;current_user_email&lt;/div&gt;" style="text;html=1;strokeColor=#666666;fillColor=#f5f5f5;align=left;verticalAlign=middle;whiteSpace=wrap;rounded=0;fontColor=#333333;" parent="WIyWlLk6GJQsqaUBKTNV-1" vertex="1">
          <mxGeometry x="235" y="1543.12" width="120" height="35" as="geometry" />
        </mxCell>
        <mxCell id="BQ6EWb-jSM-SEZKdU9I8-185" value="" style="edgeStyle=orthogonalEdgeStyle;rounded=0;orthogonalLoop=1;jettySize=auto;html=1;exitX=1;exitY=0.5;exitDx=0;exitDy=0;" parent="WIyWlLk6GJQsqaUBKTNV-1" source="BQ6EWb-jSM-SEZKdU9I8-186" target="BQ6EWb-jSM-SEZKdU9I8-190" edge="1">
          <mxGeometry relative="1" as="geometry">
            <mxPoint x="875" y="1560.62" as="sourcePoint" />
          </mxGeometry>
        </mxCell>
        <mxCell id="BQ6EWb-jSM-SEZKdU9I8-186" value="/portal_user/profile" style="rounded=1;whiteSpace=wrap;html=1;fillColor=#d5e8d4;strokeColor=#82b366;fontStyle=1" parent="WIyWlLk6GJQsqaUBKTNV-1" vertex="1">
          <mxGeometry x="395" y="1530.62" width="150" height="60" as="geometry" />
        </mxCell>
        <mxCell id="BQ6EWb-jSM-SEZKdU9I8-187" style="edgeStyle=orthogonalEdgeStyle;rounded=0;orthogonalLoop=1;jettySize=auto;html=1;exitX=0.5;exitY=1;exitDx=0;exitDy=0;entryX=0;entryY=0.5;entryDx=0;entryDy=0;" parent="WIyWlLk6GJQsqaUBKTNV-1" source="BQ6EWb-jSM-SEZKdU9I8-190" target="BQ6EWb-jSM-SEZKdU9I8-191" edge="1">
          <mxGeometry relative="1" as="geometry" />
        </mxCell>
        <mxCell id="BQ6EWb-jSM-SEZKdU9I8-188" value="No" style="edgeLabel;html=1;align=center;verticalAlign=middle;resizable=0;points=[];" parent="BQ6EWb-jSM-SEZKdU9I8-187" vertex="1" connectable="0">
          <mxGeometry x="-0.1077" y="8" relative="1" as="geometry">
            <mxPoint x="12" as="offset" />
          </mxGeometry>
        </mxCell>
        <mxCell id="BQ6EWb-jSM-SEZKdU9I8-189" style="edgeStyle=orthogonalEdgeStyle;curved=1;rounded=0;orthogonalLoop=1;jettySize=auto;html=1;entryX=0;entryY=0.5;entryDx=0;entryDy=0;fontFamily=Helvetica;fontSize=12;" parent="WIyWlLk6GJQsqaUBKTNV-1" source="BQ6EWb-jSM-SEZKdU9I8-190" target="BQ6EWb-jSM-SEZKdU9I8-195" edge="1">
          <mxGeometry relative="1" as="geometry" />
        </mxCell>
        <mxCell id="BQ6EWb-jSM-SEZKdU9I8-190" value="api key&lt;br&gt;valid" style="rhombus;whiteSpace=wrap;html=1;fillColor=#ffe6cc;strokeColor=#d79b00;" parent="WIyWlLk6GJQsqaUBKTNV-1" vertex="1">
          <mxGeometry x="580" y="1520.62" width="80" height="80" as="geometry" />
        </mxCell>
        <mxCell id="BQ6EWb-jSM-SEZKdU9I8-191" value="error" style="rounded=1;whiteSpace=wrap;html=1;fillColor=#f8cecc;strokeColor=#b85450;" parent="WIyWlLk6GJQsqaUBKTNV-1" vertex="1">
          <mxGeometry x="695" y="1618.12" width="80" height="40" as="geometry" />
        </mxCell>
        <mxCell id="BQ6EWb-jSM-SEZKdU9I8-192" value="&lt;span style=&quot;color: rgb(0, 0, 0); font-family: &amp;quot;Times New Roman&amp;quot;; font-size: 12px;&quot;&gt;{&lt;br style=&quot;font-size: 12px;&quot;&gt;  &lt;span style=&quot;white-space: pre; font-size: 12px;&quot;&gt; &lt;/span&gt;&quot;first_name&quot;: &quot;Admin&quot;,&lt;br style=&quot;font-size: 12px;&quot;&gt;  &lt;span style=&quot;white-space: pre; font-size: 12px;&quot;&gt; &lt;/span&gt;&quot;last_name&quot;: &quot;Admin&quot;,&lt;br style=&quot;font-size: 12px;&quot;&gt;  &lt;span style=&quot;white-space: pre; font-size: 12px;&quot;&gt; &lt;/span&gt;&quot;email&quot;: &quot;user@mail.com&quot;,&lt;br style=&quot;font-size: 12px;&quot;&gt;  &lt;span style=&quot;white-space: pre; font-size: 12px;&quot;&gt; &lt;/span&gt;&quot;phone&quot;: &quot;123456789&quot;,&lt;br style=&quot;font-size: 12px;&quot;&gt;  &lt;span style=&quot;white-space: pre; font-size: 12px;&quot;&gt; &lt;/span&gt;&quot;role_id&quot;: 1,&lt;br style=&quot;font-size: 12px;&quot;&gt;  &lt;span style=&quot;white-space: pre; font-size: 12px;&quot;&gt; &lt;/span&gt;&quot;company_id&quot;: 1,&lt;br style=&quot;font-size: 12px;&quot;&gt;  &lt;span style=&quot;white-space: pre; font-size: 12px;&quot;&gt; &lt;/span&gt;&quot;userapp_id&quot;: null,&lt;br style=&quot;font-size: 12px;&quot;&gt;  &lt;span style=&quot;white-space: pre; font-size: 12px;&quot;&gt; &lt;/span&gt;&quot;status&quot;: &quot;active&quot;,&lt;br style=&quot;font-size: 12px;&quot;&gt;  &lt;span style=&quot;white-space: pre; font-size: 12px;&quot;&gt; &lt;/span&gt;&quot;active&quot;: true,&lt;br style=&quot;font-size: 12px;&quot;&gt;  &lt;span style=&quot;white-space: pre; font-size: 12px;&quot;&gt; &lt;/span&gt;&quot;id&quot;: 1,&lt;br style=&quot;font-size: 12px;&quot;&gt;  &lt;span style=&quot;white-space: pre; font-size: 12px;&quot;&gt; &lt;/span&gt;&quot;usersbranches&quot;: [&lt;br style=&quot;font-size: 12px;&quot;&gt;    &lt;span style=&quot;white-space: pre; font-size: 12px;&quot;&gt; &lt;/span&gt;&lt;span style=&quot;white-space: pre; font-size: 12px;&quot;&gt; &lt;/span&gt;{&lt;br style=&quot;font-size: 12px;&quot;&gt;      &lt;span style=&quot;white-space: pre; font-size: 12px;&quot;&gt; &lt;/span&gt;&lt;span style=&quot;white-space: pre; font-size: 12px;&quot;&gt; &lt;/span&gt;&lt;span style=&quot;white-space: pre; font-size: 12px;&quot;&gt; &lt;/span&gt;&quot;user_id&quot;: 1,&lt;br style=&quot;font-size: 12px;&quot;&gt;      &lt;span style=&quot;white-space: pre; font-size: 12px;&quot;&gt; &lt;/span&gt;&lt;span style=&quot;white-space: pre; font-size: 12px;&quot;&gt; &lt;/span&gt;&lt;span style=&quot;white-space: pre; font-size: 12px;&quot;&gt; &lt;/span&gt;&quot;branch_id&quot;: 1,&lt;br style=&quot;font-size: 12px;&quot;&gt;      &lt;span style=&quot;white-space: pre; font-size: 12px;&quot;&gt; &lt;/span&gt;&lt;span style=&quot;white-space: pre; font-size: 12px;&quot;&gt; &lt;/span&gt;&lt;span style=&quot;white-space: pre; font-size: 12px;&quot;&gt; &lt;/span&gt;&quot;id&quot;: 2&lt;br style=&quot;font-size: 12px;&quot;&gt;    &lt;span style=&quot;white-space: pre; font-size: 12px;&quot;&gt; &lt;/span&gt;&lt;span style=&quot;white-space: pre; font-size: 12px;&quot;&gt; &lt;/span&gt;},&lt;br style=&quot;font-size: 12px;&quot;&gt;    &lt;span style=&quot;white-space: pre; font-size: 12px;&quot;&gt; &lt;/span&gt;&lt;span style=&quot;white-space: pre; font-size: 12px;&quot;&gt; &lt;/span&gt;{&lt;br style=&quot;font-size: 12px;&quot;&gt;      &lt;span style=&quot;white-space: pre; font-size: 12px;&quot;&gt; &lt;/span&gt;&lt;span style=&quot;white-space: pre; font-size: 12px;&quot;&gt; &lt;/span&gt;&lt;span style=&quot;white-space: pre; font-size: 12px;&quot;&gt; &lt;/span&gt;&quot;user_id&quot;: 1,&lt;br style=&quot;font-size: 12px;&quot;&gt;      &lt;span style=&quot;white-space: pre; font-size: 12px;&quot;&gt; &lt;/span&gt;&lt;span style=&quot;white-space: pre; font-size: 12px;&quot;&gt; &lt;/span&gt;&lt;span style=&quot;white-space: pre; font-size: 12px;&quot;&gt; &lt;/span&gt;&quot;branch_id&quot;: 2,&lt;br style=&quot;font-size: 12px;&quot;&gt;      &lt;span style=&quot;white-space: pre; font-size: 12px;&quot;&gt; &lt;/span&gt;&lt;span style=&quot;white-space: pre; font-size: 12px;&quot;&gt; &lt;/span&gt;&lt;span style=&quot;white-space: pre; font-size: 12px;&quot;&gt; &lt;/span&gt;&quot;id&quot;: 11&lt;br style=&quot;font-size: 12px;&quot;&gt;    &lt;span style=&quot;white-space: pre; font-size: 12px;&quot;&gt; &lt;/span&gt;&lt;span style=&quot;white-space: pre; font-size: 12px;&quot;&gt; &lt;/span&gt;}&lt;br style=&quot;font-size: 12px;&quot;&gt;  &lt;span style=&quot;white-space: pre; font-size: 12px;&quot;&gt; &lt;/span&gt;]&lt;br style=&quot;font-size: 12px;&quot;&gt;}&lt;/span&gt;" style="text;html=1;strokeColor=#666666;fillColor=#f5f5f5;align=left;verticalAlign=middle;whiteSpace=wrap;rounded=0;fontColor=#333333;fontSize=12;fontFamily=Helvetica;" parent="WIyWlLk6GJQsqaUBKTNV-1" vertex="1">
          <mxGeometry x="820" y="1382" width="197.5" height="356" as="geometry" />
        </mxCell>
        <mxCell id="BQ6EWb-jSM-SEZKdU9I8-193" style="edgeStyle=orthogonalEdgeStyle;curved=1;rounded=0;orthogonalLoop=1;jettySize=auto;html=1;exitX=1;exitY=0.5;exitDx=0;exitDy=0;entryX=0;entryY=0.5;entryDx=0;entryDy=0;fontFamily=Helvetica;fontSize=12;" parent="WIyWlLk6GJQsqaUBKTNV-1" source="BQ6EWb-jSM-SEZKdU9I8-195" target="BQ6EWb-jSM-SEZKdU9I8-192" edge="1">
          <mxGeometry relative="1" as="geometry" />
        </mxCell>
        <mxCell id="BQ6EWb-jSM-SEZKdU9I8-194" style="edgeStyle=orthogonalEdgeStyle;curved=1;rounded=0;orthogonalLoop=1;jettySize=auto;html=1;entryX=0.5;entryY=0;entryDx=0;entryDy=0;fontFamily=Helvetica;fontSize=12;" parent="WIyWlLk6GJQsqaUBKTNV-1" source="BQ6EWb-jSM-SEZKdU9I8-195" target="BQ6EWb-jSM-SEZKdU9I8-191" edge="1">
          <mxGeometry relative="1" as="geometry" />
        </mxCell>
        <mxCell id="BQ6EWb-jSM-SEZKdU9I8-195" value="code" style="shape=process;whiteSpace=wrap;html=1;backgroundOutline=1;fontFamily=Helvetica;fontSize=12;fillColor=#ffe6cc;strokeColor=#d79b00;" parent="WIyWlLk6GJQsqaUBKTNV-1" vertex="1">
          <mxGeometry x="695" y="1541.87" width="80" height="36.25" as="geometry" />
        </mxCell>
        <mxCell id="BQ6EWb-jSM-SEZKdU9I8-197" value="" style="edgeStyle=orthogonalEdgeStyle;rounded=0;orthogonalLoop=1;jettySize=auto;html=1;" parent="WIyWlLk6GJQsqaUBKTNV-1" source="BQ6EWb-jSM-SEZKdU9I8-198" target="BQ6EWb-jSM-SEZKdU9I8-200" edge="1">
          <mxGeometry relative="1" as="geometry" />
        </mxCell>
        <mxCell id="BQ6EWb-jSM-SEZKdU9I8-198" value="START" style="rounded=1;whiteSpace=wrap;html=1;fillColor=#f5f5f5;gradientColor=#b3b3b3;strokeColor=#666666;" parent="WIyWlLk6GJQsqaUBKTNV-1" vertex="1">
          <mxGeometry x="15" y="2117.5" width="60" height="37.5" as="geometry" />
        </mxCell>
        <mxCell id="BQ6EWb-jSM-SEZKdU9I8-199" value="" style="edgeStyle=orthogonalEdgeStyle;rounded=0;orthogonalLoop=1;jettySize=auto;html=1;" parent="WIyWlLk6GJQsqaUBKTNV-1" source="BQ6EWb-jSM-SEZKdU9I8-200" target="BQ6EWb-jSM-SEZKdU9I8-202" edge="1">
          <mxGeometry relative="1" as="geometry" />
        </mxCell>
        <mxCell id="BQ6EWb-jSM-SEZKdU9I8-200" value="User roles" style="rounded=1;whiteSpace=wrap;html=1;fillColor=#004C99;strokeColor=#6c8ebf;fontStyle=1;fontSize=15;fontColor=#FFFFFF;" parent="WIyWlLk6GJQsqaUBKTNV-1" vertex="1">
          <mxGeometry x="105" y="2115" width="90" height="42.5" as="geometry" />
        </mxCell>
        <mxCell id="BQ6EWb-jSM-SEZKdU9I8-201" value="" style="edgeStyle=orthogonalEdgeStyle;rounded=0;orthogonalLoop=1;jettySize=auto;html=1;" parent="WIyWlLk6GJQsqaUBKTNV-1" source="BQ6EWb-jSM-SEZKdU9I8-202" target="BQ6EWb-jSM-SEZKdU9I8-204" edge="1">
          <mxGeometry relative="1" as="geometry" />
        </mxCell>
        <mxCell id="BQ6EWb-jSM-SEZKdU9I8-202" value="&lt;div&gt;current_user_email&lt;/div&gt;" style="text;html=1;strokeColor=#666666;fillColor=#f5f5f5;align=left;verticalAlign=middle;whiteSpace=wrap;rounded=0;fontColor=#333333;" parent="WIyWlLk6GJQsqaUBKTNV-1" vertex="1">
          <mxGeometry x="225" y="2117.5" width="120" height="35" as="geometry" />
        </mxCell>
        <mxCell id="BQ6EWb-jSM-SEZKdU9I8-203" value="" style="edgeStyle=orthogonalEdgeStyle;rounded=0;orthogonalLoop=1;jettySize=auto;html=1;exitX=1;exitY=0.5;exitDx=0;exitDy=0;" parent="WIyWlLk6GJQsqaUBKTNV-1" source="BQ6EWb-jSM-SEZKdU9I8-204" target="BQ6EWb-jSM-SEZKdU9I8-208" edge="1">
          <mxGeometry relative="1" as="geometry">
            <mxPoint x="865" y="2135" as="sourcePoint" />
          </mxGeometry>
        </mxCell>
        <mxCell id="BQ6EWb-jSM-SEZKdU9I8-204" value="/portal_user/roles" style="rounded=1;whiteSpace=wrap;html=1;fillColor=#d5e8d4;strokeColor=#82b366;fontStyle=1" parent="WIyWlLk6GJQsqaUBKTNV-1" vertex="1">
          <mxGeometry x="385" y="2105" width="150" height="60" as="geometry" />
        </mxCell>
        <mxCell id="BQ6EWb-jSM-SEZKdU9I8-205" style="edgeStyle=orthogonalEdgeStyle;rounded=0;orthogonalLoop=1;jettySize=auto;html=1;exitX=0.5;exitY=1;exitDx=0;exitDy=0;entryX=0;entryY=0.5;entryDx=0;entryDy=0;" parent="WIyWlLk6GJQsqaUBKTNV-1" source="BQ6EWb-jSM-SEZKdU9I8-208" target="BQ6EWb-jSM-SEZKdU9I8-209" edge="1">
          <mxGeometry relative="1" as="geometry" />
        </mxCell>
        <mxCell id="BQ6EWb-jSM-SEZKdU9I8-206" value="No" style="edgeLabel;html=1;align=center;verticalAlign=middle;resizable=0;points=[];" parent="BQ6EWb-jSM-SEZKdU9I8-205" vertex="1" connectable="0">
          <mxGeometry x="-0.1077" y="8" relative="1" as="geometry">
            <mxPoint x="12" as="offset" />
          </mxGeometry>
        </mxCell>
        <mxCell id="BQ6EWb-jSM-SEZKdU9I8-207" style="edgeStyle=orthogonalEdgeStyle;curved=1;rounded=0;orthogonalLoop=1;jettySize=auto;html=1;entryX=0;entryY=0.5;entryDx=0;entryDy=0;fontFamily=Helvetica;fontSize=12;" parent="WIyWlLk6GJQsqaUBKTNV-1" source="BQ6EWb-jSM-SEZKdU9I8-208" target="BQ6EWb-jSM-SEZKdU9I8-211" edge="1">
          <mxGeometry relative="1" as="geometry" />
        </mxCell>
        <mxCell id="BQ6EWb-jSM-SEZKdU9I8-208" value="api key&lt;br&gt;valid" style="rhombus;whiteSpace=wrap;html=1;fillColor=#ffe6cc;strokeColor=#d79b00;" parent="WIyWlLk6GJQsqaUBKTNV-1" vertex="1">
          <mxGeometry x="570" y="2095" width="80" height="80" as="geometry" />
        </mxCell>
        <mxCell id="BQ6EWb-jSM-SEZKdU9I8-209" value="error" style="rounded=1;whiteSpace=wrap;html=1;fillColor=#f8cecc;strokeColor=#b85450;" parent="WIyWlLk6GJQsqaUBKTNV-1" vertex="1">
          <mxGeometry x="685" y="2192.5" width="80" height="40" as="geometry" />
        </mxCell>
        <mxCell id="BQ6EWb-jSM-SEZKdU9I8-210" style="edgeStyle=orthogonalEdgeStyle;curved=1;rounded=0;orthogonalLoop=1;jettySize=auto;html=1;entryX=0.5;entryY=0;entryDx=0;entryDy=0;fontFamily=Helvetica;fontSize=12;" parent="WIyWlLk6GJQsqaUBKTNV-1" source="BQ6EWb-jSM-SEZKdU9I8-211" target="BQ6EWb-jSM-SEZKdU9I8-209" edge="1">
          <mxGeometry relative="1" as="geometry" />
        </mxCell>
        <mxCell id="BQ6EWb-jSM-SEZKdU9I8-213" value="" style="edgeStyle=orthogonalEdgeStyle;rounded=0;orthogonalLoop=1;jettySize=auto;html=1;fontFamily=Helvetica;fontSize=12;" parent="WIyWlLk6GJQsqaUBKTNV-1" source="BQ6EWb-jSM-SEZKdU9I8-211" target="BQ6EWb-jSM-SEZKdU9I8-212" edge="1">
          <mxGeometry relative="1" as="geometry" />
        </mxCell>
        <mxCell id="BQ6EWb-jSM-SEZKdU9I8-211" value="code" style="shape=process;whiteSpace=wrap;html=1;backgroundOutline=1;fontFamily=Helvetica;fontSize=12;fillColor=#ffe6cc;strokeColor=#d79b00;" parent="WIyWlLk6GJQsqaUBKTNV-1" vertex="1">
          <mxGeometry x="685" y="2116.25" width="80" height="36.25" as="geometry" />
        </mxCell>
        <mxCell id="BQ6EWb-jSM-SEZKdU9I8-212" value="&lt;span style=&quot;color: rgb(0, 0, 0); font-family: &amp;quot;Times New Roman&amp;quot;; font-size: 12px;&quot;&gt;{&lt;br style=&quot;font-size: 12px;&quot;&gt;  &lt;span style=&quot;white-space: pre;&quot;&gt; &lt;/span&gt;&quot;id&quot;: 1,&lt;br style=&quot;font-size: 12px;&quot;&gt;  &lt;span style=&quot;white-space: pre;&quot;&gt; &lt;/span&gt;&quot;role_name&quot;: &quot;Super Admin&quot;,&lt;br style=&quot;font-size: 12px;&quot;&gt;  &lt;span style=&quot;white-space: pre;&quot;&gt; &lt;/span&gt;&quot;role_code&quot;: &quot;SA&quot;&lt;br style=&quot;font-size: 12px;&quot;&gt;}&lt;/span&gt;" style="text;html=1;strokeColor=#666666;fillColor=#f5f5f5;align=left;verticalAlign=middle;whiteSpace=wrap;rounded=0;fontColor=#333333;fontSize=12;fontFamily=Helvetica;" parent="WIyWlLk6GJQsqaUBKTNV-1" vertex="1">
          <mxGeometry x="816.25" y="2088.13" width="180" height="92.5" as="geometry" />
        </mxCell>
        <mxCell id="LxilRW_G5FVL5WIiPjVo-0" value="&lt;pre style=&quot;font-family: monospace; font-size: 12px; box-sizing: border-box; overflow-wrap: break-word; background: rgb(51, 51, 51); border-radius: 4px; color: white; font-weight: 600; hyphens: auto; margin: 0px; padding: 0.5em; word-break: break-word; font-style: normal; font-variant-ligatures: normal; font-variant-caps: normal; letter-spacing: normal; orphans: 2; text-align: start; text-indent: 0px; text-transform: none; widows: 2; word-spacing: 0px; -webkit-text-stroke-width: 0px; text-decoration-thickness: initial; text-decoration-style: initial; text-decoration-color: initial; display: block; overflow-x: auto;&quot; class=&quot;curl microlight&quot;&gt;&lt;code style=&quot;font-family: Consolas, monaco, monospace; font-size: 1em; box-sizing: border-box;&quot; class=&quot;language-bash&quot;&gt;&lt;span&gt;curl -X &lt;/span&gt;&lt;span style=&quot;color: rgb(162, 252, 162);&quot;&gt;&#39;GET&#39;&lt;/span&gt;&lt;span&gt; \&#xa;&lt;/span&gt;&lt;span&gt;  &lt;/span&gt;&lt;span style=&quot;color: rgb(162, 252, 162);&quot;&gt;&#39;https://sevenpro-dot-fidoapi.nw.r.appspot.com/v1/portal_users/profile?current_user_email=acoello%40fido.tech&#39;&lt;/span&gt;&lt;span&gt; \&#xa;&lt;/span&gt;&lt;span&gt;  -H &lt;/span&gt;&lt;span style=&quot;color: rgb(162, 252, 162);&quot;&gt;&#39;accept: application/json&#39;&lt;/span&gt;&lt;span&gt; \&#xa;&lt;/span&gt;&lt;span&gt;  -H &lt;/span&gt;&lt;span style=&quot;color: rgb(162, 252, 162);&quot;&gt;&#39;X-FidoAPI-Key: gc8OEn6tHZ0ifEHRLEz08FwPdjJW93WP&#39;&lt;/span&gt;&lt;/code&gt;&lt;/pre&gt;" style="text;whiteSpace=wrap;html=1;fontColor=#FFFFFF;" vertex="1" parent="WIyWlLk6GJQsqaUBKTNV-1">
          <mxGeometry x="15" y="1440.62" width="560" height="100" as="geometry" />
        </mxCell>
        <mxCell id="LxilRW_G5FVL5WIiPjVo-1" value="&lt;pre style=&quot;font-family: monospace; font-size: 12px; box-sizing: border-box; overflow-wrap: break-word; background: rgb(51, 51, 51); border-radius: 4px; color: white; font-weight: 600; hyphens: auto; margin: 0px; padding: 0.5em; word-break: break-word; font-style: normal; font-variant-ligatures: normal; font-variant-caps: normal; letter-spacing: normal; orphans: 2; text-align: start; text-indent: 0px; text-transform: none; widows: 2; word-spacing: 0px; -webkit-text-stroke-width: 0px; text-decoration-thickness: initial; text-decoration-style: initial; text-decoration-color: initial; display: block; overflow-x: auto;&quot; class=&quot;curl microlight&quot;&gt;&lt;code style=&quot;font-family: Consolas, monaco, monospace; font-size: 1em; box-sizing: border-box;&quot; class=&quot;language-bash&quot;&gt;&lt;span&gt;curl -X &lt;/span&gt;&lt;span style=&quot;color: rgb(162, 252, 162);&quot;&gt;&#39;GET&#39;&lt;/span&gt;&lt;span&gt; \&#xa;&lt;/span&gt;&lt;span&gt;  &lt;/span&gt;&lt;span style=&quot;color: rgb(162, 252, 162);&quot;&gt;&#39;https://sevenpro-dot-fidoapi.nw.r.appspot.com/v1/portal_users/roles?current_user_email=acoello%40fido.tech&#39;&lt;/span&gt;&lt;span&gt; \&#xa;&lt;/span&gt;&lt;span&gt;  -H &lt;/span&gt;&lt;span style=&quot;color: rgb(162, 252, 162);&quot;&gt;&#39;accept: application/json&#39;&lt;/span&gt;&lt;span&gt; \&#xa;&lt;/span&gt;&lt;span&gt;  -H &lt;/span&gt;&lt;span style=&quot;color: rgb(162, 252, 162);&quot;&gt;&#39;X-FidoAPI-Key: gc8OEn6tHZ0ifEHRLEz08FwPdjJW93WP&#39;&lt;/span&gt;&lt;/code&gt;&lt;/pre&gt;" style="text;whiteSpace=wrap;html=1;fontColor=#FFFFFF;" vertex="1" parent="WIyWlLk6GJQsqaUBKTNV-1">
          <mxGeometry x="10" y="2015" width="560" height="100" as="geometry" />
        </mxCell>
        <mxCell id="LxilRW_G5FVL5WIiPjVo-2" value="&lt;pre style=&quot;font-family: monospace; font-size: 12px; box-sizing: border-box; overflow-wrap: break-word; background: rgb(51, 51, 51); border-radius: 4px; color: white; font-weight: 600; hyphens: auto; margin: 0px; padding: 0.5em; word-break: break-word; font-style: normal; font-variant-ligatures: normal; font-variant-caps: normal; letter-spacing: normal; orphans: 2; text-align: start; text-indent: 0px; text-transform: none; widows: 2; word-spacing: 0px; -webkit-text-stroke-width: 0px; text-decoration-thickness: initial; text-decoration-style: initial; text-decoration-color: initial; display: block; overflow-x: auto;&quot; class=&quot;curl microlight&quot;&gt;&lt;code style=&quot;font-family: Consolas, monaco, monospace; font-size: 1em; box-sizing: border-box;&quot; class=&quot;language-bash&quot;&gt;&lt;span&gt;curl -X &lt;/span&gt;&lt;span style=&quot;color: rgb(162, 252, 162);&quot;&gt;&#39;PATCH&#39;&lt;/span&gt;&lt;span&gt; \&#xa;&lt;/span&gt;&lt;span&gt;  &lt;/span&gt;&lt;span style=&quot;color: rgb(162, 252, 162);&quot;&gt;&#39;http://127.0.0.1:8000/v1/portal_users/update/user%40example.com?current_user_email=alik69%40msn.com&#39;&lt;/span&gt;&lt;span&gt; \&#xa;&lt;/span&gt;&lt;span&gt;  -H &lt;/span&gt;&lt;span style=&quot;color: rgb(162, 252, 162);&quot;&gt;&#39;accept: application/json&#39;&lt;/span&gt;&lt;span&gt; \&#xa;&lt;/span&gt;&lt;span&gt;  -H &lt;/span&gt;&lt;span style=&quot;color: rgb(162, 252, 162);&quot;&gt;&#39;X-FidoAPI-Key: gc8OEn6tHZ0ifEHRLEz08FwPdjJW93WP&#39;&lt;/span&gt;&lt;span&gt; \&#xa;&lt;/span&gt;&lt;span&gt;  -H &lt;/span&gt;&lt;span style=&quot;color: rgb(162, 252, 162);&quot;&gt;&#39;Content-Type: application/json&#39;&lt;/span&gt;&lt;span&gt; \&#xa;&lt;/span&gt;&lt;span&gt;  -d &lt;/span&gt;&lt;span style=&quot;color: rgb(162, 252, 162);&quot;&gt;&#39;{&#xa;&lt;/span&gt;&lt;span style=&quot;color: rgb(162, 252, 162);&quot;&gt;  &quot;first_name&quot;: &quot;string&quot;,&#xa;&lt;/span&gt;&lt;span style=&quot;color: rgb(162, 252, 162);&quot;&gt;  &quot;last_name&quot;: &quot;string&quot;,&#xa;&lt;/span&gt;&lt;span style=&quot;color: rgb(162, 252, 162);&quot;&gt;  &quot;email&quot;: &quot;user@example.com&quot;,&#xa;&lt;/span&gt;&lt;span style=&quot;color: rgb(162, 252, 162);&quot;&gt;  &quot;phone&quot;: &quot;string&quot;,&#xa;&lt;/span&gt;&lt;span style=&quot;color: rgb(162, 252, 162);&quot;&gt;  &quot;role_id&quot;: 3,&#xa;&lt;/span&gt;&lt;span style=&quot;color: rgb(162, 252, 162);&quot;&gt;  &quot;company_id&quot;: 2&#xa;&lt;/span&gt;&lt;span style=&quot;color: rgb(162, 252, 162);&quot;&gt;}&#39;&lt;/span&gt;&lt;/code&gt;&lt;/pre&gt;" style="text;whiteSpace=wrap;html=1;fontColor=#FFFFFF;" vertex="1" parent="WIyWlLk6GJQsqaUBKTNV-1">
          <mxGeometry x="24.380000000000003" y="3000" width="560" height="230" as="geometry" />
        </mxCell>
        <mxCell id="LxilRW_G5FVL5WIiPjVo-3" value="" style="edgeStyle=orthogonalEdgeStyle;rounded=0;orthogonalLoop=1;jettySize=auto;html=1;" edge="1" parent="WIyWlLk6GJQsqaUBKTNV-1" source="LxilRW_G5FVL5WIiPjVo-4" target="LxilRW_G5FVL5WIiPjVo-6">
          <mxGeometry relative="1" as="geometry" />
        </mxCell>
        <mxCell id="LxilRW_G5FVL5WIiPjVo-4" value="START" style="rounded=1;whiteSpace=wrap;html=1;fillColor=#f5f5f5;gradientColor=#b3b3b3;strokeColor=#666666;" vertex="1" parent="WIyWlLk6GJQsqaUBKTNV-1">
          <mxGeometry x="29.380000000000003" y="3239.37" width="60" height="37.5" as="geometry" />
        </mxCell>
        <mxCell id="LxilRW_G5FVL5WIiPjVo-5" value="" style="edgeStyle=orthogonalEdgeStyle;rounded=0;orthogonalLoop=1;jettySize=auto;html=1;" edge="1" parent="WIyWlLk6GJQsqaUBKTNV-1" source="LxilRW_G5FVL5WIiPjVo-6" target="LxilRW_G5FVL5WIiPjVo-8">
          <mxGeometry relative="1" as="geometry" />
        </mxCell>
        <mxCell id="LxilRW_G5FVL5WIiPjVo-25" style="edgeStyle=orthogonalEdgeStyle;rounded=0;orthogonalLoop=1;jettySize=auto;html=1;exitX=1;exitY=0.5;exitDx=0;exitDy=0;entryX=0;entryY=0.5;entryDx=0;entryDy=0;fontColor=#FFFFFF;" edge="1" parent="WIyWlLk6GJQsqaUBKTNV-1" source="LxilRW_G5FVL5WIiPjVo-6" target="LxilRW_G5FVL5WIiPjVo-21">
          <mxGeometry relative="1" as="geometry" />
        </mxCell>
        <mxCell id="LxilRW_G5FVL5WIiPjVo-26" style="edgeStyle=orthogonalEdgeStyle;rounded=0;orthogonalLoop=1;jettySize=auto;html=1;entryX=0;entryY=0.5;entryDx=0;entryDy=0;fontColor=#FFFFFF;" edge="1" parent="WIyWlLk6GJQsqaUBKTNV-1" source="LxilRW_G5FVL5WIiPjVo-6" target="LxilRW_G5FVL5WIiPjVo-22">
          <mxGeometry relative="1" as="geometry" />
        </mxCell>
        <mxCell id="LxilRW_G5FVL5WIiPjVo-6" value="Update User" style="rounded=1;whiteSpace=wrap;html=1;fillColor=#004C99;strokeColor=#6c8ebf;fontStyle=1;fontSize=15;fontColor=#FFFFFF;" vertex="1" parent="WIyWlLk6GJQsqaUBKTNV-1">
          <mxGeometry x="119.38" y="3236.87" width="90" height="42.5" as="geometry" />
        </mxCell>
        <mxCell id="LxilRW_G5FVL5WIiPjVo-7" value="" style="edgeStyle=orthogonalEdgeStyle;rounded=0;orthogonalLoop=1;jettySize=auto;html=1;" edge="1" parent="WIyWlLk6GJQsqaUBKTNV-1" source="LxilRW_G5FVL5WIiPjVo-8" target="LxilRW_G5FVL5WIiPjVo-10">
          <mxGeometry relative="1" as="geometry" />
        </mxCell>
        <mxCell id="LxilRW_G5FVL5WIiPjVo-8" value="&lt;div&gt;user_email&lt;/div&gt;" style="text;html=1;strokeColor=#666666;fillColor=#f5f5f5;align=left;verticalAlign=middle;whiteSpace=wrap;rounded=0;fontColor=#333333;" vertex="1" parent="WIyWlLk6GJQsqaUBKTNV-1">
          <mxGeometry x="249.38" y="3216.87" width="120" height="35" as="geometry" />
        </mxCell>
        <mxCell id="LxilRW_G5FVL5WIiPjVo-9" value="" style="edgeStyle=orthogonalEdgeStyle;rounded=0;orthogonalLoop=1;jettySize=auto;html=1;exitX=1;exitY=0.5;exitDx=0;exitDy=0;" edge="1" parent="WIyWlLk6GJQsqaUBKTNV-1" source="LxilRW_G5FVL5WIiPjVo-10" target="LxilRW_G5FVL5WIiPjVo-14">
          <mxGeometry relative="1" as="geometry">
            <mxPoint x="879.38" y="3256.87" as="sourcePoint" />
          </mxGeometry>
        </mxCell>
        <mxCell id="LxilRW_G5FVL5WIiPjVo-10" value="/portal_user/update/{user_email}" style="rounded=1;whiteSpace=wrap;html=1;fillColor=#d5e8d4;strokeColor=#82b366;fontStyle=1" vertex="1" parent="WIyWlLk6GJQsqaUBKTNV-1">
          <mxGeometry x="479.38" y="3228.12" width="200" height="60" as="geometry" />
        </mxCell>
        <mxCell id="LxilRW_G5FVL5WIiPjVo-11" style="edgeStyle=orthogonalEdgeStyle;rounded=0;orthogonalLoop=1;jettySize=auto;html=1;exitX=0.5;exitY=1;exitDx=0;exitDy=0;entryX=0;entryY=0.5;entryDx=0;entryDy=0;" edge="1" parent="WIyWlLk6GJQsqaUBKTNV-1" source="LxilRW_G5FVL5WIiPjVo-14" target="LxilRW_G5FVL5WIiPjVo-15">
          <mxGeometry relative="1" as="geometry" />
        </mxCell>
        <mxCell id="LxilRW_G5FVL5WIiPjVo-12" value="No" style="edgeLabel;html=1;align=center;verticalAlign=middle;resizable=0;points=[];" vertex="1" connectable="0" parent="LxilRW_G5FVL5WIiPjVo-11">
          <mxGeometry x="-0.1077" y="8" relative="1" as="geometry">
            <mxPoint x="12" as="offset" />
          </mxGeometry>
        </mxCell>
        <mxCell id="LxilRW_G5FVL5WIiPjVo-13" style="edgeStyle=orthogonalEdgeStyle;curved=1;rounded=0;orthogonalLoop=1;jettySize=auto;html=1;entryX=0;entryY=0.5;entryDx=0;entryDy=0;fontFamily=Helvetica;fontSize=12;" edge="1" parent="WIyWlLk6GJQsqaUBKTNV-1" source="LxilRW_G5FVL5WIiPjVo-14" target="LxilRW_G5FVL5WIiPjVo-18">
          <mxGeometry relative="1" as="geometry" />
        </mxCell>
        <mxCell id="LxilRW_G5FVL5WIiPjVo-14" value="api key&lt;br&gt;valid" style="rhombus;whiteSpace=wrap;html=1;fillColor=#ffe6cc;strokeColor=#d79b00;" vertex="1" parent="WIyWlLk6GJQsqaUBKTNV-1">
          <mxGeometry x="719.38" y="3218.12" width="80" height="80" as="geometry" />
        </mxCell>
        <mxCell id="LxilRW_G5FVL5WIiPjVo-15" value="error" style="rounded=1;whiteSpace=wrap;html=1;fillColor=#f8cecc;strokeColor=#b85450;" vertex="1" parent="WIyWlLk6GJQsqaUBKTNV-1">
          <mxGeometry x="839.38" y="3328.12" width="80" height="40" as="geometry" />
        </mxCell>
        <mxCell id="LxilRW_G5FVL5WIiPjVo-16" style="edgeStyle=orthogonalEdgeStyle;curved=1;rounded=0;orthogonalLoop=1;jettySize=auto;html=1;entryX=0.5;entryY=0;entryDx=0;entryDy=0;fontFamily=Helvetica;fontSize=12;" edge="1" parent="WIyWlLk6GJQsqaUBKTNV-1" source="LxilRW_G5FVL5WIiPjVo-18" target="LxilRW_G5FVL5WIiPjVo-15">
          <mxGeometry relative="1" as="geometry" />
        </mxCell>
        <mxCell id="LxilRW_G5FVL5WIiPjVo-17" value="" style="edgeStyle=orthogonalEdgeStyle;rounded=0;orthogonalLoop=1;jettySize=auto;html=1;fontFamily=Helvetica;fontSize=12;entryX=0;entryY=0.5;entryDx=0;entryDy=0;" edge="1" parent="WIyWlLk6GJQsqaUBKTNV-1" source="LxilRW_G5FVL5WIiPjVo-18" target="LxilRW_G5FVL5WIiPjVo-29">
          <mxGeometry relative="1" as="geometry">
            <mxPoint x="994.38" y="3257.5" as="targetPoint" />
          </mxGeometry>
        </mxCell>
        <mxCell id="LxilRW_G5FVL5WIiPjVo-18" value="code" style="shape=process;whiteSpace=wrap;html=1;backgroundOutline=1;fontFamily=Helvetica;fontSize=12;fillColor=#ffe6cc;strokeColor=#d79b00;" vertex="1" parent="WIyWlLk6GJQsqaUBKTNV-1">
          <mxGeometry x="839.38" y="3239.37" width="80" height="36.25" as="geometry" />
        </mxCell>
        <mxCell id="LxilRW_G5FVL5WIiPjVo-27" style="edgeStyle=orthogonalEdgeStyle;rounded=0;orthogonalLoop=1;jettySize=auto;html=1;entryX=0;entryY=0.5;entryDx=0;entryDy=0;fontColor=#FFFFFF;" edge="1" parent="WIyWlLk6GJQsqaUBKTNV-1" source="LxilRW_G5FVL5WIiPjVo-21" target="LxilRW_G5FVL5WIiPjVo-10">
          <mxGeometry relative="1" as="geometry" />
        </mxCell>
        <mxCell id="LxilRW_G5FVL5WIiPjVo-21" value="&lt;div&gt;current_user_email&lt;/div&gt;" style="text;html=1;strokeColor=#666666;fillColor=#f5f5f5;align=left;verticalAlign=middle;whiteSpace=wrap;rounded=0;fontColor=#333333;" vertex="1" parent="WIyWlLk6GJQsqaUBKTNV-1">
          <mxGeometry x="249.38" y="3268.74" width="120" height="35" as="geometry" />
        </mxCell>
        <mxCell id="LxilRW_G5FVL5WIiPjVo-28" style="edgeStyle=orthogonalEdgeStyle;rounded=0;orthogonalLoop=1;jettySize=auto;html=1;entryX=0;entryY=0.5;entryDx=0;entryDy=0;fontColor=#FFFFFF;" edge="1" parent="WIyWlLk6GJQsqaUBKTNV-1" source="LxilRW_G5FVL5WIiPjVo-22" target="LxilRW_G5FVL5WIiPjVo-10">
          <mxGeometry relative="1" as="geometry" />
        </mxCell>
        <mxCell id="LxilRW_G5FVL5WIiPjVo-22" value="&lt;div&gt;{&lt;/div&gt;&lt;div&gt;&amp;nbsp; &quot;first_name&quot;: &quot;string&quot;,&lt;/div&gt;&lt;div&gt;&amp;nbsp; &quot;last_name&quot;: &quot;string&quot;,&lt;/div&gt;&lt;div&gt;&amp;nbsp; &quot;email&quot;: &quot;user@example.com&quot;,&lt;/div&gt;&lt;div&gt;&amp;nbsp; &quot;phone&quot;: &quot;string&quot;,&lt;/div&gt;&lt;div&gt;&amp;nbsp; &quot;role_id&quot;: 3,&lt;/div&gt;&lt;div&gt;&amp;nbsp; &quot;company_id&quot;: 2&lt;/div&gt;&lt;div&gt;}&lt;/div&gt;" style="text;html=1;strokeColor=#666666;fillColor=#f5f5f5;align=left;verticalAlign=middle;whiteSpace=wrap;rounded=0;fontColor=#333333;" vertex="1" parent="WIyWlLk6GJQsqaUBKTNV-1">
          <mxGeometry x="249.38" y="3321.24" width="180" height="140" as="geometry" />
        </mxCell>
        <mxCell id="LxilRW_G5FVL5WIiPjVo-29" value="&lt;div&gt;{&lt;/div&gt;&lt;div&gt;&amp;nbsp; &quot;first_name&quot;: &quot;string&quot;,&lt;/div&gt;&lt;div&gt;&amp;nbsp; &quot;last_name&quot;: &quot;string&quot;,&lt;/div&gt;&lt;div&gt;&amp;nbsp; &quot;email&quot;: &quot;user@example.com&quot;,&lt;/div&gt;&lt;div&gt;&amp;nbsp; &quot;phone&quot;: &quot;string&quot;,&lt;/div&gt;&lt;div&gt;&amp;nbsp; &quot;role_id&quot;: 3,&lt;/div&gt;&lt;div&gt;&amp;nbsp; &quot;company_id&quot;: 2&lt;/div&gt;&lt;div&gt;}&lt;/div&gt;" style="text;html=1;strokeColor=#666666;fillColor=#f5f5f5;align=left;verticalAlign=middle;whiteSpace=wrap;rounded=0;fontColor=#333333;" vertex="1" parent="WIyWlLk6GJQsqaUBKTNV-1">
          <mxGeometry x="964.38" y="3188.12" width="180" height="140" as="geometry" />
        </mxCell>
        <mxCell id="LxilRW_G5FVL5WIiPjVo-30" value="&lt;pre style=&quot;font-family: monospace; font-size: 12px; box-sizing: border-box; overflow-wrap: break-word; background: rgb(51, 51, 51); border-radius: 4px; color: white; font-weight: 600; hyphens: auto; margin: 0px; padding: 0.5em; word-break: break-word; font-style: normal; font-variant-ligatures: normal; font-variant-caps: normal; letter-spacing: normal; orphans: 2; text-align: start; text-indent: 0px; text-transform: none; widows: 2; word-spacing: 0px; -webkit-text-stroke-width: 0px; text-decoration-thickness: initial; text-decoration-style: initial; text-decoration-color: initial; display: block; overflow-x: auto;&quot; class=&quot;curl microlight&quot;&gt;&lt;code style=&quot;font-family: Consolas, monaco, monospace; font-size: 1em; box-sizing: border-box;&quot; class=&quot;language-bash&quot;&gt;&lt;span&gt;curl -X &lt;/span&gt;&lt;span style=&quot;color: rgb(162, 252, 162);&quot;&gt;&#39;POST&#39;&lt;/span&gt;&lt;span&gt; \&#xa;&lt;/span&gt;&lt;span&gt;  &lt;/span&gt;&lt;span style=&quot;color: rgb(162, 252, 162);&quot;&gt;&#39;https://sevenpro-dot-fidoapi.nw.r.appspot.com/v1/authorization/login&#39;&lt;/span&gt;&lt;span&gt; \&#xa;&lt;/span&gt;&lt;span&gt;  -H &lt;/span&gt;&lt;span style=&quot;color: rgb(162, 252, 162);&quot;&gt;&#39;accept: application/json&#39;&lt;/span&gt;&lt;span&gt; \&#xa;&lt;/span&gt;&lt;span&gt;  -H &lt;/span&gt;&lt;span style=&quot;color: rgb(162, 252, 162);&quot;&gt;&#39;X-FidoAPI-Key: gc8OEn6tHZ0ifEHRLEz08FwPdjJW93WP&#39;&lt;/span&gt;&lt;span&gt; \&#xa;&lt;/span&gt;&lt;span&gt;  -H &lt;/span&gt;&lt;span style=&quot;color: rgb(162, 252, 162);&quot;&gt;&#39;Content-Type: application/x-www-form-urlencoded&#39;&lt;/span&gt;&lt;span&gt; \&#xa;&lt;/span&gt;&lt;span&gt;  -d &lt;/span&gt;&lt;span style=&quot;color: rgb(162, 252, 162);&quot;&gt;&#39;grant_type=&amp;amp;username=acoello%40fido.tech&amp;amp;password=FIDO2022&amp;amp;scope=&amp;amp;client_id=&amp;amp;client_secret=&#39;&lt;/span&gt;&lt;/code&gt;&lt;/pre&gt;" style="text;whiteSpace=wrap;html=1;fontColor=#FFFFFF;" vertex="1" parent="WIyWlLk6GJQsqaUBKTNV-1">
          <mxGeometry x="20" y="12.5" width="560" height="130" as="geometry" />
        </mxCell>
        <mxCell id="LxilRW_G5FVL5WIiPjVo-31" value="&lt;pre style=&quot;font-family: monospace; font-size: 12px; box-sizing: border-box; overflow-wrap: break-word; background: rgb(51, 51, 51); border-radius: 4px; color: white; font-weight: 600; hyphens: auto; margin: 0px; padding: 0.5em; word-break: break-word; font-style: normal; font-variant-ligatures: normal; font-variant-caps: normal; letter-spacing: normal; orphans: 2; text-align: start; text-indent: 0px; text-transform: none; widows: 2; word-spacing: 0px; -webkit-text-stroke-width: 0px; text-decoration-thickness: initial; text-decoration-style: initial; text-decoration-color: initial; display: block; overflow-x: auto;&quot; class=&quot;curl microlight&quot;&gt;&lt;code style=&quot;font-family: Consolas, monaco, monospace; font-size: 1em; box-sizing: border-box;&quot; class=&quot;language-bash&quot;&gt;&lt;span&gt;curl -X &lt;/span&gt;&lt;span style=&quot;color: rgb(162, 252, 162);&quot;&gt;&#39;POST&#39;&lt;/span&gt;&lt;span&gt; \&#xa;&lt;/span&gt;&lt;span&gt;  &lt;/span&gt;&lt;span style=&quot;color: rgb(162, 252, 162);&quot;&gt;&#39;https://sevenpro-dot-fidoapi.nw.r.appspot.com/v1/authorization/forgot&#39;&lt;/span&gt;&lt;span&gt; \&#xa;&lt;/span&gt;&lt;span&gt;  -H &lt;/span&gt;&lt;span style=&quot;color: rgb(162, 252, 162);&quot;&gt;&#39;accept: application/json&#39;&lt;/span&gt;&lt;span&gt; \&#xa;&lt;/span&gt;&lt;span&gt;  -H &lt;/span&gt;&lt;span style=&quot;color: rgb(162, 252, 162);&quot;&gt;&#39;X-FidoAPI-Key: gc8OEn6tHZ0ifEHRLEz08FwPdjJW93WP&#39;&lt;/span&gt;&lt;span&gt; \&#xa;&lt;/span&gt;&lt;span&gt;  -H &lt;/span&gt;&lt;span style=&quot;color: rgb(162, 252, 162);&quot;&gt;&#39;Content-Type: application/json&#39;&lt;/span&gt;&lt;span&gt; \&#xa;&lt;/span&gt;&lt;span&gt;  -d &lt;/span&gt;&lt;span style=&quot;color: rgb(162, 252, 162);&quot;&gt;&#39;{&#xa;&lt;/span&gt;&lt;span style=&quot;color: rgb(162, 252, 162);&quot;&gt;  &quot;email&quot;: &quot;user@example.com&quot;,&#xa;&lt;/span&gt;&lt;span style=&quot;color: rgb(162, 252, 162);&quot;&gt;  &quot;redirect_url&quot;: &quot;string&quot;&#xa;&lt;/span&gt;&lt;span style=&quot;color: rgb(162, 252, 162);&quot;&gt;}&#39;&lt;/span&gt;&lt;/code&gt;&lt;/pre&gt;" style="text;whiteSpace=wrap;html=1;fontColor=#FFFFFF;" vertex="1" parent="WIyWlLk6GJQsqaUBKTNV-1">
          <mxGeometry x="20" y="387.5" width="560" height="170" as="geometry" />
        </mxCell>
        <mxCell id="LxilRW_G5FVL5WIiPjVo-32" value="&lt;pre style=&quot;font-family: monospace; font-size: 12px; box-sizing: border-box; overflow-wrap: break-word; background: rgb(51, 51, 51); border-radius: 4px; color: white; font-weight: 600; hyphens: auto; margin: 0px; padding: 0.5em; word-break: break-word; font-style: normal; font-variant-ligatures: normal; font-variant-caps: normal; letter-spacing: normal; orphans: 2; text-align: start; text-indent: 0px; text-transform: none; widows: 2; word-spacing: 0px; -webkit-text-stroke-width: 0px; text-decoration-thickness: initial; text-decoration-style: initial; text-decoration-color: initial; display: block; overflow-x: auto;&quot; class=&quot;curl microlight&quot;&gt;&lt;code style=&quot;font-family: Consolas, monaco, monospace; font-size: 1em; box-sizing: border-box;&quot; class=&quot;language-bash&quot;&gt;&lt;span&gt;curl -X &lt;/span&gt;&lt;span style=&quot;color: rgb(162, 252, 162);&quot;&gt;&#39;POST&#39;&lt;/span&gt;&lt;span&gt; \&#xa;&lt;/span&gt;&lt;span&gt;  &lt;/span&gt;&lt;span style=&quot;color: rgb(162, 252, 162);&quot;&gt;&#39;https://sevenpro-dot-fidoapi.nw.r.appspot.com/v1/authorization/recovery&#39;&lt;/span&gt;&lt;span&gt; \&#xa;&lt;/span&gt;&lt;span&gt;  -H &lt;/span&gt;&lt;span style=&quot;color: rgb(162, 252, 162);&quot;&gt;&#39;accept: application/json&#39;&lt;/span&gt;&lt;span&gt; \&#xa;&lt;/span&gt;&lt;span&gt;  -H &lt;/span&gt;&lt;span style=&quot;color: rgb(162, 252, 162);&quot;&gt;&#39;X-FidoAPI-Key: gc8OEn6tHZ0ifEHRLEz08FwPdjJW93WP&#39;&lt;/span&gt;&lt;span&gt; \&#xa;&lt;/span&gt;&lt;span&gt;  -H &lt;/span&gt;&lt;span style=&quot;color: rgb(162, 252, 162);&quot;&gt;&#39;Content-Type: application/json&#39;&lt;/span&gt;&lt;span&gt; \&#xa;&lt;/span&gt;&lt;span&gt;  -d &lt;/span&gt;&lt;span style=&quot;color: rgb(162, 252, 162);&quot;&gt;&#39;{&#xa;&lt;/span&gt;&lt;span style=&quot;color: rgb(162, 252, 162);&quot;&gt;  &quot;token&quot;: &quot;eyJhbGciOiJIUzI1NiIsInR5cCI6IkpXVCJ9.eyJzdWIiOiJhY29lbGxvQGZpZG8udGVjaCIsInR5cGUiOiJhY2NlcHQiLCJwYXNzdyI6bnVsbCwiZXhwIjoxNjY3MzkwNTM4fQ.Kpy5e6MYtZUvSOJoXcfxiCNkp4DjINOEAeadj1wkpME&quot;,&#xa;&lt;/span&gt;&lt;span style=&quot;color: rgb(162, 252, 162);&quot;&gt;  &quot;email&quot;: &quot;user@example.com&quot;,&#xa;&lt;/span&gt;&lt;span style=&quot;color: rgb(162, 252, 162);&quot;&gt;  &quot;password&quot;: &quot;string&quot;&#xa;&lt;/span&gt;&lt;span style=&quot;color: rgb(162, 252, 162);&quot;&gt;}&#39;&lt;/span&gt;&lt;/code&gt;&lt;/pre&gt;" style="text;whiteSpace=wrap;html=1;fontColor=#FFFFFF;" vertex="1" parent="WIyWlLk6GJQsqaUBKTNV-1">
          <mxGeometry x="20" y="685" width="1290" height="166" as="geometry" />
        </mxCell>
        <mxCell id="LxilRW_G5FVL5WIiPjVo-33" value="&lt;pre style=&quot;font-family: monospace; font-size: 12px; box-sizing: border-box; overflow-wrap: break-word; background: rgb(51, 51, 51); border-radius: 4px; color: white; font-weight: 600; hyphens: auto; margin: 0px; padding: 0.5em; word-break: break-word; font-style: normal; font-variant-ligatures: normal; font-variant-caps: normal; letter-spacing: normal; orphans: 2; text-align: start; text-indent: 0px; text-transform: none; widows: 2; word-spacing: 0px; -webkit-text-stroke-width: 0px; text-decoration-thickness: initial; text-decoration-style: initial; text-decoration-color: initial; display: block; overflow-x: auto;&quot; class=&quot;curl microlight&quot;&gt;&lt;code style=&quot;font-family: Consolas, monaco, monospace; font-size: 1em; box-sizing: border-box;&quot; class=&quot;language-bash&quot;&gt;&lt;span&gt;curl -X &lt;/span&gt;&lt;span style=&quot;color: rgb(162, 252, 162);&quot;&gt;&#39;POST&#39;&lt;/span&gt;&lt;span&gt; \&#xa;&lt;/span&gt;&lt;span&gt;  &lt;/span&gt;&lt;span style=&quot;color: rgb(162, 252, 162);&quot;&gt;&#39;https://sevenpro-dot-fidoapi.nw.r.appspot.com/v1/authorization/decode?token=eyJhbGciOiJIUzI1NiIsInR5cCI6IkpXVCJ9.eyJzdWIiOiJhY29lbGxvQGZpZG8udGVjaCIsInR5cGUiOiJhY2NlcHQiLCJwYXNzdyI6bnVsbCwiZXhwIjoxNjY3MzkwNTM4fQ.Kpy5e6MYtZUvSOJoXcfxiCNkp4DjINOEAeadj1wkpME&#39;&lt;/span&gt;&lt;span&gt; \&#xa;&lt;/span&gt;&lt;span&gt;  -H &lt;/span&gt;&lt;span style=&quot;color: rgb(162, 252, 162);&quot;&gt;&#39;accept: application/json&#39;&lt;/span&gt;&lt;span&gt; \&#xa;&lt;/span&gt;&lt;span&gt;  -H &lt;/span&gt;&lt;span style=&quot;color: rgb(162, 252, 162);&quot;&gt;&#39;X-FidoAPI-Key: gc8OEn6tHZ0ifEHRLEz08FwPdjJW93WP&#39;&lt;/span&gt;&lt;span&gt; \&#xa;&lt;/span&gt;&lt;span&gt;  -d &lt;/span&gt;&lt;span style=&quot;color: rgb(162, 252, 162);&quot;&gt;&#39;&#39;&lt;/span&gt;&lt;/code&gt;&lt;/pre&gt;" style="text;whiteSpace=wrap;html=1;fontColor=#FFFFFF;" vertex="1" parent="WIyWlLk6GJQsqaUBKTNV-1">
          <mxGeometry x="20" y="1055.5" width="560" height="120" as="geometry" />
        </mxCell>
        <mxCell id="LxilRW_G5FVL5WIiPjVo-34" value="&lt;pre style=&quot;font-family: monospace; font-size: 12px; box-sizing: border-box; overflow-wrap: break-word; background: rgb(51, 51, 51); border-radius: 4px; color: white; font-weight: 600; hyphens: auto; margin: 0px; padding: 0.5em; word-break: break-word; font-style: normal; font-variant-ligatures: normal; font-variant-caps: normal; letter-spacing: normal; orphans: 2; text-align: start; text-indent: 0px; text-transform: none; widows: 2; word-spacing: 0px; -webkit-text-stroke-width: 0px; text-decoration-thickness: initial; text-decoration-style: initial; text-decoration-color: initial; display: block; overflow-x: auto;&quot; class=&quot;curl microlight&quot;&gt;&lt;code style=&quot;font-family: Consolas, monaco, monospace; font-size: 1em; box-sizing: border-box;&quot; class=&quot;language-bash&quot;&gt;&lt;span&gt;curl -X &lt;/span&gt;&lt;span style=&quot;color: rgb(162, 252, 162);&quot;&gt;&#39;POST&#39;&lt;/span&gt;&lt;span&gt; \&#xa;&lt;/span&gt;&lt;span&gt;  &lt;/span&gt;&lt;span style=&quot;color: rgb(162, 252, 162);&quot;&gt;&#39;https://sevenpro-dot-fidoapi.nw.r.appspot.com/v1/portal_users/create?current_user_email=acoello%40fido.tech&#39;&lt;/span&gt;&lt;span&gt; \&#xa;&lt;/span&gt;&lt;span&gt;  -H &lt;/span&gt;&lt;span style=&quot;color: rgb(162, 252, 162);&quot;&gt;&#39;accept: application/json&#39;&lt;/span&gt;&lt;span&gt; \&#xa;&lt;/span&gt;&lt;span&gt;  -H &lt;/span&gt;&lt;span style=&quot;color: rgb(162, 252, 162);&quot;&gt;&#39;X-FidoAPI-Key: gc8OEn6tHZ0ifEHRLEz08FwPdjJW93WP&#39;&lt;/span&gt;&lt;span&gt; \&#xa;&lt;/span&gt;&lt;span&gt;  -H &lt;/span&gt;&lt;span style=&quot;color: rgb(162, 252, 162);&quot;&gt;&#39;Content-Type: application/json&#39;&lt;/span&gt;&lt;span&gt; \&#xa;&lt;/span&gt;&lt;span&gt;  -d &lt;/span&gt;&lt;span style=&quot;color: rgb(162, 252, 162);&quot;&gt;&#39;{&#xa;&lt;/span&gt;&lt;span style=&quot;color: rgb(162, 252, 162);&quot;&gt;  &quot;first_name&quot;: &quot;string&quot;,&#xa;&lt;/span&gt;&lt;span style=&quot;color: rgb(162, 252, 162);&quot;&gt;  &quot;last_name&quot;: &quot;string&quot;,&#xa;&lt;/span&gt;&lt;span style=&quot;color: rgb(162, 252, 162);&quot;&gt;  &quot;email&quot;: &quot;user@example.com&quot;,&#xa;&lt;/span&gt;&lt;span style=&quot;color: rgb(162, 252, 162);&quot;&gt;  &quot;phone&quot;: &quot;string&quot;,&#xa;&lt;/span&gt;&lt;span style=&quot;color: rgb(162, 252, 162);&quot;&gt;  &quot;role_id&quot;: 1,&#xa;&lt;/span&gt;&lt;span style=&quot;color: rgb(162, 252, 162);&quot;&gt;  &quot;company_id&quot;: 1,&#xa;&lt;/span&gt;&lt;span style=&quot;color: rgb(162, 252, 162);&quot;&gt;  &quot;status&quot;: &quot;pending&quot;,&#xa;&lt;/span&gt;&lt;span style=&quot;color: rgb(162, 252, 162);&quot;&gt;  &quot;active&quot;: true,&#xa;&lt;/span&gt;&lt;span style=&quot;color: rgb(162, 252, 162);&quot;&gt;  &quot;userapp_id&quot;: 0&#xa;&lt;/span&gt;&lt;span style=&quot;color: rgb(162, 252, 162);&quot;&gt;}&#39;&lt;/span&gt;&lt;/code&gt;&lt;/pre&gt;" style="text;whiteSpace=wrap;html=1;fontColor=#FFFFFF;" vertex="1" parent="WIyWlLk6GJQsqaUBKTNV-1">
          <mxGeometry x="29.38000000000011" y="2470" width="760" height="247" as="geometry" />
        </mxCell>
        <mxCell id="LxilRW_G5FVL5WIiPjVo-35" value="&lt;pre style=&quot;font-family: monospace; font-size: 12px; box-sizing: border-box; overflow-wrap: break-word; background: rgb(51, 51, 51); border-radius: 4px; color: white; font-weight: 600; hyphens: auto; margin: 0px; padding: 0.5em; word-break: break-word; font-style: normal; font-variant-ligatures: normal; font-variant-caps: normal; letter-spacing: normal; orphans: 2; text-align: start; text-indent: 0px; text-transform: none; widows: 2; word-spacing: 0px; -webkit-text-stroke-width: 0px; text-decoration-thickness: initial; text-decoration-style: initial; text-decoration-color: initial; display: block; overflow-x: auto;&quot; class=&quot;curl microlight&quot;&gt;&lt;code style=&quot;font-family: Consolas, monaco, monospace; font-size: 1em; box-sizing: border-box;&quot; class=&quot;language-bash&quot;&gt;&lt;span&gt;curl -X &lt;/span&gt;&lt;span style=&quot;color: rgb(162, 252, 162);&quot;&gt;&#39;GET&#39;&lt;/span&gt;&lt;span&gt; \&#xa;&lt;/span&gt;&lt;span&gt;  &lt;/span&gt;&lt;span style=&quot;color: rgb(162, 252, 162);&quot;&gt;&#39;http://127.0.0.1:8000/v1/portal_users/list?current_user_email=acoello%40fido.tech&#39;&lt;/span&gt;&lt;span&gt; \&#xa;&lt;/span&gt;&lt;span&gt;  -H &lt;/span&gt;&lt;span style=&quot;color: rgb(162, 252, 162);&quot;&gt;&#39;accept: application/json&#39;&lt;/span&gt;&lt;span&gt; \&#xa;&lt;/span&gt;&lt;span&gt;  -H &lt;/span&gt;&lt;span style=&quot;color: rgb(162, 252, 162);&quot;&gt;&#39;X-FidoAPI-Key: gc8OEn6tHZ0ifEHRLEz08FwPdjJW93WP&#39;&lt;/span&gt;&lt;/code&gt;&lt;/pre&gt;" style="text;whiteSpace=wrap;html=1;fontColor=#FFFFFF;" vertex="1" parent="WIyWlLk6GJQsqaUBKTNV-1">
          <mxGeometry x="15" y="1765.63" width="560" height="100" as="geometry" />
        </mxCell>
        <mxCell id="LxilRW_G5FVL5WIiPjVo-36" value="" style="edgeStyle=orthogonalEdgeStyle;rounded=0;orthogonalLoop=1;jettySize=auto;html=1;" edge="1" parent="WIyWlLk6GJQsqaUBKTNV-1" source="LxilRW_G5FVL5WIiPjVo-37" target="LxilRW_G5FVL5WIiPjVo-39">
          <mxGeometry relative="1" as="geometry" />
        </mxCell>
        <mxCell id="LxilRW_G5FVL5WIiPjVo-37" value="START" style="rounded=1;whiteSpace=wrap;html=1;fillColor=#f5f5f5;gradientColor=#b3b3b3;strokeColor=#666666;" vertex="1" parent="WIyWlLk6GJQsqaUBKTNV-1">
          <mxGeometry x="19.369999999999997" y="1865" width="60" height="37.5" as="geometry" />
        </mxCell>
        <mxCell id="LxilRW_G5FVL5WIiPjVo-38" value="" style="edgeStyle=orthogonalEdgeStyle;rounded=0;orthogonalLoop=1;jettySize=auto;html=1;" edge="1" parent="WIyWlLk6GJQsqaUBKTNV-1" source="LxilRW_G5FVL5WIiPjVo-39" target="LxilRW_G5FVL5WIiPjVo-41">
          <mxGeometry relative="1" as="geometry" />
        </mxCell>
        <mxCell id="LxilRW_G5FVL5WIiPjVo-39" value="Users List" style="rounded=1;whiteSpace=wrap;html=1;fillColor=#004C99;strokeColor=#6c8ebf;fontStyle=1;fontSize=15;fontColor=#FFFFFF;" vertex="1" parent="WIyWlLk6GJQsqaUBKTNV-1">
          <mxGeometry x="109.36999999999999" y="1862.5" width="90" height="42.5" as="geometry" />
        </mxCell>
        <mxCell id="LxilRW_G5FVL5WIiPjVo-40" value="" style="edgeStyle=orthogonalEdgeStyle;rounded=0;orthogonalLoop=1;jettySize=auto;html=1;" edge="1" parent="WIyWlLk6GJQsqaUBKTNV-1" source="LxilRW_G5FVL5WIiPjVo-41" target="LxilRW_G5FVL5WIiPjVo-43">
          <mxGeometry relative="1" as="geometry" />
        </mxCell>
        <mxCell id="LxilRW_G5FVL5WIiPjVo-41" value="&lt;div&gt;current_user_email&lt;/div&gt;" style="text;html=1;strokeColor=#666666;fillColor=#f5f5f5;align=left;verticalAlign=middle;whiteSpace=wrap;rounded=0;fontColor=#333333;" vertex="1" parent="WIyWlLk6GJQsqaUBKTNV-1">
          <mxGeometry x="229.37" y="1865" width="120" height="35" as="geometry" />
        </mxCell>
        <mxCell id="LxilRW_G5FVL5WIiPjVo-42" value="" style="edgeStyle=orthogonalEdgeStyle;rounded=0;orthogonalLoop=1;jettySize=auto;html=1;exitX=1;exitY=0.5;exitDx=0;exitDy=0;" edge="1" parent="WIyWlLk6GJQsqaUBKTNV-1" source="LxilRW_G5FVL5WIiPjVo-43" target="LxilRW_G5FVL5WIiPjVo-47">
          <mxGeometry relative="1" as="geometry">
            <mxPoint x="869.37" y="1882.5" as="sourcePoint" />
          </mxGeometry>
        </mxCell>
        <mxCell id="LxilRW_G5FVL5WIiPjVo-43" value="/portal_user/list" style="rounded=1;whiteSpace=wrap;html=1;fillColor=#d5e8d4;strokeColor=#82b366;fontStyle=1" vertex="1" parent="WIyWlLk6GJQsqaUBKTNV-1">
          <mxGeometry x="389.37" y="1852.5" width="150" height="60" as="geometry" />
        </mxCell>
        <mxCell id="LxilRW_G5FVL5WIiPjVo-44" style="edgeStyle=orthogonalEdgeStyle;rounded=0;orthogonalLoop=1;jettySize=auto;html=1;exitX=0.5;exitY=1;exitDx=0;exitDy=0;entryX=0;entryY=0.5;entryDx=0;entryDy=0;" edge="1" parent="WIyWlLk6GJQsqaUBKTNV-1" source="LxilRW_G5FVL5WIiPjVo-47" target="LxilRW_G5FVL5WIiPjVo-48">
          <mxGeometry relative="1" as="geometry" />
        </mxCell>
        <mxCell id="LxilRW_G5FVL5WIiPjVo-45" value="No" style="edgeLabel;html=1;align=center;verticalAlign=middle;resizable=0;points=[];" vertex="1" connectable="0" parent="LxilRW_G5FVL5WIiPjVo-44">
          <mxGeometry x="-0.1077" y="8" relative="1" as="geometry">
            <mxPoint x="12" as="offset" />
          </mxGeometry>
        </mxCell>
        <mxCell id="LxilRW_G5FVL5WIiPjVo-46" style="edgeStyle=orthogonalEdgeStyle;curved=1;rounded=0;orthogonalLoop=1;jettySize=auto;html=1;entryX=0;entryY=0.5;entryDx=0;entryDy=0;fontFamily=Helvetica;fontSize=12;" edge="1" parent="WIyWlLk6GJQsqaUBKTNV-1" source="LxilRW_G5FVL5WIiPjVo-47" target="LxilRW_G5FVL5WIiPjVo-51">
          <mxGeometry relative="1" as="geometry" />
        </mxCell>
        <mxCell id="LxilRW_G5FVL5WIiPjVo-47" value="api key&lt;br&gt;valid" style="rhombus;whiteSpace=wrap;html=1;fillColor=#ffe6cc;strokeColor=#d79b00;" vertex="1" parent="WIyWlLk6GJQsqaUBKTNV-1">
          <mxGeometry x="574.37" y="1842.5" width="80" height="80" as="geometry" />
        </mxCell>
        <mxCell id="LxilRW_G5FVL5WIiPjVo-48" value="error" style="rounded=1;whiteSpace=wrap;html=1;fillColor=#f8cecc;strokeColor=#b85450;" vertex="1" parent="WIyWlLk6GJQsqaUBKTNV-1">
          <mxGeometry x="689.37" y="1940" width="80" height="40" as="geometry" />
        </mxCell>
        <mxCell id="LxilRW_G5FVL5WIiPjVo-49" style="edgeStyle=orthogonalEdgeStyle;curved=1;rounded=0;orthogonalLoop=1;jettySize=auto;html=1;entryX=0.5;entryY=0;entryDx=0;entryDy=0;fontFamily=Helvetica;fontSize=12;" edge="1" parent="WIyWlLk6GJQsqaUBKTNV-1" source="LxilRW_G5FVL5WIiPjVo-51" target="LxilRW_G5FVL5WIiPjVo-48">
          <mxGeometry relative="1" as="geometry" />
        </mxCell>
        <mxCell id="LxilRW_G5FVL5WIiPjVo-50" value="" style="edgeStyle=orthogonalEdgeStyle;rounded=0;orthogonalLoop=1;jettySize=auto;html=1;fontFamily=Helvetica;fontSize=12;" edge="1" parent="WIyWlLk6GJQsqaUBKTNV-1" source="LxilRW_G5FVL5WIiPjVo-51" target="LxilRW_G5FVL5WIiPjVo-52">
          <mxGeometry relative="1" as="geometry" />
        </mxCell>
        <mxCell id="LxilRW_G5FVL5WIiPjVo-51" value="code" style="shape=process;whiteSpace=wrap;html=1;backgroundOutline=1;fontFamily=Helvetica;fontSize=12;fillColor=#ffe6cc;strokeColor=#d79b00;" vertex="1" parent="WIyWlLk6GJQsqaUBKTNV-1">
          <mxGeometry x="689.37" y="1863.75" width="80" height="36.25" as="geometry" />
        </mxCell>
        <mxCell id="LxilRW_G5FVL5WIiPjVo-52" value="&lt;div&gt;[&lt;/div&gt;&lt;div&gt;&amp;nbsp; {&lt;/div&gt;&lt;div&gt;&amp;nbsp; &amp;nbsp; &quot;first_name&quot;: &quot;Admin&quot;,&lt;/div&gt;&lt;div&gt;&amp;nbsp; &amp;nbsp; &quot;last_name&quot;: &quot;Admin&quot;,&lt;/div&gt;&lt;div&gt;&amp;nbsp; &amp;nbsp; &quot;email&quot;: &quot;acoello@fido.tech&quot;,&lt;/div&gt;&lt;div&gt;&amp;nbsp; &amp;nbsp; &quot;phone&quot;: &quot;123456789&quot;,&lt;/div&gt;&lt;div&gt;&amp;nbsp; &amp;nbsp; &quot;role_id&quot;: 1,&lt;/div&gt;&lt;div&gt;&amp;nbsp; &amp;nbsp; &quot;company_id&quot;: 1,&lt;/div&gt;&lt;div&gt;&amp;nbsp; &amp;nbsp; &quot;userapp_id&quot;: null,&lt;/div&gt;&lt;div&gt;&amp;nbsp; &amp;nbsp; &quot;status&quot;: &quot;active&quot;,&lt;/div&gt;&lt;div&gt;&amp;nbsp; &amp;nbsp; &quot;active&quot;: true,&lt;/div&gt;&lt;div&gt;&amp;nbsp; &amp;nbsp; &quot;id&quot;: 1&lt;/div&gt;&lt;div&gt;&amp;nbsp; },&lt;/div&gt;&lt;div&gt;&amp;nbsp; ...&lt;/div&gt;" style="text;html=1;strokeColor=#666666;fillColor=#f5f5f5;align=left;verticalAlign=middle;whiteSpace=wrap;rounded=0;fontColor=#333333;fontSize=12;fontFamily=Helvetica;" vertex="1" parent="WIyWlLk6GJQsqaUBKTNV-1">
          <mxGeometry x="837.5" y="1771.88" width="180" height="220" as="geometry" />
        </mxCell>
        <mxCell id="LxilRW_G5FVL5WIiPjVo-54" value="&lt;pre style=&quot;font-family: monospace; font-size: 12px; box-sizing: border-box; overflow-wrap: break-word; background: rgb(51, 51, 51); border-radius: 4px; color: white; font-weight: 600; hyphens: auto; margin: 0px; padding: 0.5em; word-break: break-word; font-style: normal; font-variant-ligatures: normal; font-variant-caps: normal; letter-spacing: normal; orphans: 2; text-align: start; text-indent: 0px; text-transform: none; widows: 2; word-spacing: 0px; -webkit-text-stroke-width: 0px; text-decoration-thickness: initial; text-decoration-style: initial; text-decoration-color: initial; display: block; overflow-x: auto;&quot; class=&quot;curl microlight&quot;&gt;&lt;code style=&quot;font-family: Consolas, monaco, monospace; font-size: 1em; box-sizing: border-box;&quot; class=&quot;language-bash&quot;&gt;&lt;span&gt;curl -X &lt;/span&gt;&lt;span style=&quot;color: rgb(162, 252, 162);&quot;&gt;&#39;GET&#39;&lt;/span&gt;&lt;span&gt; \&#xa;&lt;/span&gt;&lt;span&gt;  &lt;/span&gt;&lt;span style=&quot;color: rgb(162, 252, 162);&quot;&gt;&#39;http://127.0.0.1:8000/v1/portal_users/roles/list&#39;&lt;/span&gt;&lt;span&gt; \&#xa;&lt;/span&gt;&lt;span&gt;  -H &lt;/span&gt;&lt;span style=&quot;color: rgb(162, 252, 162);&quot;&gt;&#39;accept: application/json&#39;&lt;/span&gt;&lt;span&gt; \&#xa;&lt;/span&gt;&lt;span&gt;  -H &lt;/span&gt;&lt;span style=&quot;color: rgb(162, 252, 162);&quot;&gt;&#39;X-FidoAPI-Key: gc8OEn6tHZ0ifEHRLEz08FwPdjJW93WP&#39;&lt;/span&gt;&lt;/code&gt;&lt;/pre&gt;" style="text;whiteSpace=wrap;html=1;fontColor=#FFFFFF;" vertex="1" parent="WIyWlLk6GJQsqaUBKTNV-1">
          <mxGeometry x="20" y="2238.25" width="400" height="90" as="geometry" />
        </mxCell>
        <mxCell id="LxilRW_G5FVL5WIiPjVo-55" value="" style="edgeStyle=orthogonalEdgeStyle;rounded=0;orthogonalLoop=1;jettySize=auto;html=1;" edge="1" parent="WIyWlLk6GJQsqaUBKTNV-1" source="LxilRW_G5FVL5WIiPjVo-56" target="LxilRW_G5FVL5WIiPjVo-58">
          <mxGeometry relative="1" as="geometry" />
        </mxCell>
        <mxCell id="LxilRW_G5FVL5WIiPjVo-56" value="START" style="rounded=1;whiteSpace=wrap;html=1;fillColor=#f5f5f5;gradientColor=#b3b3b3;strokeColor=#666666;" vertex="1" parent="WIyWlLk6GJQsqaUBKTNV-1">
          <mxGeometry x="24.38" y="2336.62" width="60" height="37.5" as="geometry" />
        </mxCell>
        <mxCell id="LxilRW_G5FVL5WIiPjVo-57" value="" style="edgeStyle=orthogonalEdgeStyle;rounded=0;orthogonalLoop=1;jettySize=auto;html=1;entryX=0;entryY=0.5;entryDx=0;entryDy=0;" edge="1" parent="WIyWlLk6GJQsqaUBKTNV-1" source="LxilRW_G5FVL5WIiPjVo-58" target="LxilRW_G5FVL5WIiPjVo-62">
          <mxGeometry relative="1" as="geometry">
            <mxPoint x="234.3800000000001" y="2354.15" as="targetPoint" />
          </mxGeometry>
        </mxCell>
        <mxCell id="LxilRW_G5FVL5WIiPjVo-58" value="General list of roles" style="rounded=1;whiteSpace=wrap;html=1;fillColor=#004C99;strokeColor=#6c8ebf;fontStyle=1;fontSize=15;fontColor=#FFFFFF;" vertex="1" parent="WIyWlLk6GJQsqaUBKTNV-1">
          <mxGeometry x="114.38" y="2334.12" width="90" height="42.5" as="geometry" />
        </mxCell>
        <mxCell id="LxilRW_G5FVL5WIiPjVo-61" value="" style="edgeStyle=orthogonalEdgeStyle;rounded=0;orthogonalLoop=1;jettySize=auto;html=1;exitX=1;exitY=0.5;exitDx=0;exitDy=0;" edge="1" parent="WIyWlLk6GJQsqaUBKTNV-1" source="LxilRW_G5FVL5WIiPjVo-62" target="LxilRW_G5FVL5WIiPjVo-66">
          <mxGeometry relative="1" as="geometry">
            <mxPoint x="874.38" y="2354.12" as="sourcePoint" />
          </mxGeometry>
        </mxCell>
        <mxCell id="LxilRW_G5FVL5WIiPjVo-62" value="/portal_user/roles/list" style="rounded=1;whiteSpace=wrap;html=1;fillColor=#d5e8d4;strokeColor=#82b366;fontStyle=1" vertex="1" parent="WIyWlLk6GJQsqaUBKTNV-1">
          <mxGeometry x="315" y="2325.37" width="150" height="60" as="geometry" />
        </mxCell>
        <mxCell id="LxilRW_G5FVL5WIiPjVo-63" style="edgeStyle=orthogonalEdgeStyle;rounded=0;orthogonalLoop=1;jettySize=auto;html=1;exitX=0.5;exitY=1;exitDx=0;exitDy=0;entryX=0;entryY=0.5;entryDx=0;entryDy=0;" edge="1" parent="WIyWlLk6GJQsqaUBKTNV-1" source="LxilRW_G5FVL5WIiPjVo-66" target="LxilRW_G5FVL5WIiPjVo-67">
          <mxGeometry relative="1" as="geometry" />
        </mxCell>
        <mxCell id="LxilRW_G5FVL5WIiPjVo-64" value="No" style="edgeLabel;html=1;align=center;verticalAlign=middle;resizable=0;points=[];" vertex="1" connectable="0" parent="LxilRW_G5FVL5WIiPjVo-63">
          <mxGeometry x="-0.1077" y="8" relative="1" as="geometry">
            <mxPoint x="12" as="offset" />
          </mxGeometry>
        </mxCell>
        <mxCell id="LxilRW_G5FVL5WIiPjVo-65" style="edgeStyle=orthogonalEdgeStyle;curved=1;rounded=0;orthogonalLoop=1;jettySize=auto;html=1;entryX=0;entryY=0.5;entryDx=0;entryDy=0;fontFamily=Helvetica;fontSize=12;" edge="1" parent="WIyWlLk6GJQsqaUBKTNV-1" source="LxilRW_G5FVL5WIiPjVo-66" target="LxilRW_G5FVL5WIiPjVo-70">
          <mxGeometry relative="1" as="geometry" />
        </mxCell>
        <mxCell id="LxilRW_G5FVL5WIiPjVo-66" value="api key&lt;br&gt;valid" style="rhombus;whiteSpace=wrap;html=1;fillColor=#ffe6cc;strokeColor=#d79b00;" vertex="1" parent="WIyWlLk6GJQsqaUBKTNV-1">
          <mxGeometry x="580" y="2315.37" width="80" height="80" as="geometry" />
        </mxCell>
        <mxCell id="LxilRW_G5FVL5WIiPjVo-67" value="error" style="rounded=1;whiteSpace=wrap;html=1;fillColor=#f8cecc;strokeColor=#b85450;" vertex="1" parent="WIyWlLk6GJQsqaUBKTNV-1">
          <mxGeometry x="700" y="2411.62" width="80" height="40" as="geometry" />
        </mxCell>
        <mxCell id="LxilRW_G5FVL5WIiPjVo-68" style="edgeStyle=orthogonalEdgeStyle;curved=1;rounded=0;orthogonalLoop=1;jettySize=auto;html=1;entryX=0.5;entryY=0;entryDx=0;entryDy=0;fontFamily=Helvetica;fontSize=12;" edge="1" parent="WIyWlLk6GJQsqaUBKTNV-1" source="LxilRW_G5FVL5WIiPjVo-70" target="LxilRW_G5FVL5WIiPjVo-67">
          <mxGeometry relative="1" as="geometry" />
        </mxCell>
        <mxCell id="LxilRW_G5FVL5WIiPjVo-69" value="" style="edgeStyle=orthogonalEdgeStyle;rounded=0;orthogonalLoop=1;jettySize=auto;html=1;fontFamily=Helvetica;fontSize=12;" edge="1" parent="WIyWlLk6GJQsqaUBKTNV-1" source="LxilRW_G5FVL5WIiPjVo-70" target="LxilRW_G5FVL5WIiPjVo-71">
          <mxGeometry relative="1" as="geometry" />
        </mxCell>
        <mxCell id="LxilRW_G5FVL5WIiPjVo-70" value="code" style="shape=process;whiteSpace=wrap;html=1;backgroundOutline=1;fontFamily=Helvetica;fontSize=12;fillColor=#ffe6cc;strokeColor=#d79b00;" vertex="1" parent="WIyWlLk6GJQsqaUBKTNV-1">
          <mxGeometry x="700" y="2336.62" width="80" height="36.25" as="geometry" />
        </mxCell>
        <mxCell id="LxilRW_G5FVL5WIiPjVo-71" value="&lt;span style=&quot;color: rgb(0, 0, 0); font-family: &amp;quot;Times New Roman&amp;quot;; font-size: 12px;&quot;&gt;[&lt;br&gt;&amp;nbsp; &amp;nbsp;{&lt;br style=&quot;font-size: 12px;&quot;&gt;  &lt;/span&gt;&lt;span style=&quot;color: rgb(0, 0, 0); font-family: &amp;quot;Times New Roman&amp;quot;;&quot;&gt;&amp;nbsp; &amp;nbsp;&lt;/span&gt;&lt;span style=&quot;color: rgb(0, 0, 0); font-family: &amp;quot;Times New Roman&amp;quot;; font-size: 12px;&quot;&gt;&quot;id&quot;: 1,&lt;br style=&quot;font-size: 12px;&quot;&gt;  &lt;span style=&quot;&quot;&gt;&lt;/span&gt;&lt;/span&gt;&lt;span style=&quot;color: rgb(0, 0, 0); font-family: &amp;quot;Times New Roman&amp;quot;;&quot;&gt;&amp;nbsp; &amp;nbsp;&lt;/span&gt;&lt;span style=&quot;color: rgb(0, 0, 0); font-family: &amp;quot;Times New Roman&amp;quot;; font-size: 12px;&quot;&gt;&quot;role_name&quot;: &quot;Super Admin&quot;,&lt;br style=&quot;font-size: 12px;&quot;&gt;  &lt;span style=&quot;&quot;&gt;&lt;/span&gt;&lt;/span&gt;&lt;span style=&quot;color: rgb(0, 0, 0); font-family: &amp;quot;Times New Roman&amp;quot;;&quot;&gt;&amp;nbsp; &amp;nbsp;&lt;/span&gt;&lt;span style=&quot;color: rgb(0, 0, 0); font-family: &amp;quot;Times New Roman&amp;quot;; font-size: 12px;&quot;&gt;&quot;role_code&quot;: &quot;SA&quot;&lt;br style=&quot;font-size: 12px;&quot;&gt;&lt;/span&gt;&lt;span style=&quot;color: rgb(0, 0, 0); font-family: &amp;quot;Times New Roman&amp;quot;;&quot;&gt;&amp;nbsp; &amp;nbsp;&lt;/span&gt;&lt;span style=&quot;color: rgb(0, 0, 0); font-family: &amp;quot;Times New Roman&amp;quot;; font-size: 12px;&quot;&gt;},&lt;br&gt;&lt;/span&gt;&lt;span style=&quot;color: rgb(0, 0, 0); font-family: &amp;quot;Times New Roman&amp;quot;;&quot;&gt;&amp;nbsp; &amp;nbsp;&lt;/span&gt;&lt;span style=&quot;color: rgb(0, 0, 0); font-family: &amp;quot;Times New Roman&amp;quot;; font-size: 12px;&quot;&gt;...&lt;br&gt;&lt;/span&gt;" style="text;html=1;strokeColor=#666666;fillColor=#f5f5f5;align=left;verticalAlign=middle;whiteSpace=wrap;rounded=0;fontColor=#333333;fontSize=12;fontFamily=Helvetica;" vertex="1" parent="WIyWlLk6GJQsqaUBKTNV-1">
          <mxGeometry x="816.25" y="2299.24" width="180" height="111" as="geometry" />
        </mxCell>
        <mxCell id="LxilRW_G5FVL5WIiPjVo-72" value="&lt;pre style=&quot;font-family: monospace; font-size: 12px; box-sizing: border-box; overflow-wrap: break-word; background: rgb(51, 51, 51); border-radius: 4px; color: white; font-weight: 600; hyphens: auto; margin: 0px; padding: 0.5em; word-break: break-word; font-style: normal; font-variant-ligatures: normal; font-variant-caps: normal; letter-spacing: normal; orphans: 2; text-align: start; text-indent: 0px; text-transform: none; widows: 2; word-spacing: 0px; -webkit-text-stroke-width: 0px; text-decoration-thickness: initial; text-decoration-style: initial; text-decoration-color: initial; display: block; overflow-x: auto;&quot; class=&quot;curl microlight&quot;&gt;&lt;code style=&quot;font-family: Consolas, monaco, monospace; font-size: 1em; box-sizing: border-box;&quot; class=&quot;language-bash&quot;&gt;&lt;span&gt;curl -X &lt;/span&gt;&lt;span style=&quot;color: rgb(162, 252, 162);&quot;&gt;&#39;DELETE&#39;&lt;/span&gt;&lt;span&gt; \&#xa;&lt;/span&gt;&lt;span&gt;  &lt;/span&gt;&lt;span style=&quot;color: rgb(162, 252, 162);&quot;&gt;&#39;http://127.0.0.1:8000/v1/portal_users/user1%40admin.com?current_user_email=user2%40admin.com&#39;&lt;/span&gt;&lt;span&gt; \&#xa;&lt;/span&gt;&lt;span&gt;  -H &lt;/span&gt;&lt;span style=&quot;color: rgb(162, 252, 162);&quot;&gt;&#39;accept: application/json&#39;&lt;/span&gt;&lt;span&gt; \&#xa;&lt;/span&gt;&lt;span&gt;  -H &lt;/span&gt;&lt;span style=&quot;color: rgb(162, 252, 162);&quot;&gt;&#39;X-FidoAPI-Key: gc8OEn6tHZ0ifEHRLEz08FwPdjJW93WP&#39;&lt;/span&gt;&lt;/code&gt;&lt;/pre&gt;" style="text;whiteSpace=wrap;html=1;fontColor=#FFFFFF;" vertex="1" parent="WIyWlLk6GJQsqaUBKTNV-1">
          <mxGeometry x="20" y="3494" width="660.63" height="76.63" as="geometry" />
        </mxCell>
        <mxCell id="LxilRW_G5FVL5WIiPjVo-73" value="" style="edgeStyle=orthogonalEdgeStyle;rounded=0;orthogonalLoop=1;jettySize=auto;html=1;" edge="1" parent="WIyWlLk6GJQsqaUBKTNV-1" source="LxilRW_G5FVL5WIiPjVo-74" target="LxilRW_G5FVL5WIiPjVo-76">
          <mxGeometry relative="1" as="geometry" />
        </mxCell>
        <mxCell id="LxilRW_G5FVL5WIiPjVo-74" value="START" style="rounded=1;whiteSpace=wrap;html=1;fillColor=#f5f5f5;gradientColor=#b3b3b3;strokeColor=#666666;" vertex="1" parent="WIyWlLk6GJQsqaUBKTNV-1">
          <mxGeometry x="20.629999999999992" y="3600" width="60" height="37.5" as="geometry" />
        </mxCell>
        <mxCell id="LxilRW_G5FVL5WIiPjVo-75" value="" style="edgeStyle=orthogonalEdgeStyle;rounded=0;orthogonalLoop=1;jettySize=auto;html=1;" edge="1" parent="WIyWlLk6GJQsqaUBKTNV-1" source="LxilRW_G5FVL5WIiPjVo-76" target="LxilRW_G5FVL5WIiPjVo-78">
          <mxGeometry relative="1" as="geometry" />
        </mxCell>
        <mxCell id="LxilRW_G5FVL5WIiPjVo-91" style="edgeStyle=orthogonalEdgeStyle;rounded=0;orthogonalLoop=1;jettySize=auto;html=1;entryX=0;entryY=0.5;entryDx=0;entryDy=0;fontColor=#FFFFFF;" edge="1" parent="WIyWlLk6GJQsqaUBKTNV-1" source="LxilRW_G5FVL5WIiPjVo-76" target="LxilRW_G5FVL5WIiPjVo-90">
          <mxGeometry relative="1" as="geometry" />
        </mxCell>
        <mxCell id="LxilRW_G5FVL5WIiPjVo-76" value="Delete User" style="rounded=1;whiteSpace=wrap;html=1;fillColor=#004C99;strokeColor=#6c8ebf;fontStyle=1;fontSize=15;fontColor=#FFFFFF;" vertex="1" parent="WIyWlLk6GJQsqaUBKTNV-1">
          <mxGeometry x="110.63" y="3597.5" width="90" height="42.5" as="geometry" />
        </mxCell>
        <mxCell id="LxilRW_G5FVL5WIiPjVo-77" value="" style="edgeStyle=orthogonalEdgeStyle;rounded=0;orthogonalLoop=1;jettySize=auto;html=1;" edge="1" parent="WIyWlLk6GJQsqaUBKTNV-1" source="LxilRW_G5FVL5WIiPjVo-78" target="LxilRW_G5FVL5WIiPjVo-80">
          <mxGeometry relative="1" as="geometry" />
        </mxCell>
        <mxCell id="LxilRW_G5FVL5WIiPjVo-78" value="&lt;div&gt;user_email&lt;/div&gt;" style="text;html=1;strokeColor=#666666;fillColor=#f5f5f5;align=left;verticalAlign=middle;whiteSpace=wrap;rounded=0;fontColor=#333333;" vertex="1" parent="WIyWlLk6GJQsqaUBKTNV-1">
          <mxGeometry x="240.63" y="3587.5" width="80" height="35" as="geometry" />
        </mxCell>
        <mxCell id="LxilRW_G5FVL5WIiPjVo-79" value="" style="edgeStyle=orthogonalEdgeStyle;rounded=0;orthogonalLoop=1;jettySize=auto;html=1;exitX=1;exitY=0.5;exitDx=0;exitDy=0;" edge="1" parent="WIyWlLk6GJQsqaUBKTNV-1" source="LxilRW_G5FVL5WIiPjVo-80" target="LxilRW_G5FVL5WIiPjVo-84">
          <mxGeometry relative="1" as="geometry">
            <mxPoint x="870.63" y="3617.5" as="sourcePoint" />
          </mxGeometry>
        </mxCell>
        <mxCell id="LxilRW_G5FVL5WIiPjVo-80" value="/portal_user/roles/list" style="rounded=1;whiteSpace=wrap;html=1;fillColor=#d5e8d4;strokeColor=#82b366;fontStyle=1" vertex="1" parent="WIyWlLk6GJQsqaUBKTNV-1">
          <mxGeometry x="400.63" y="3588.75" width="150" height="60" as="geometry" />
        </mxCell>
        <mxCell id="LxilRW_G5FVL5WIiPjVo-81" style="edgeStyle=orthogonalEdgeStyle;rounded=0;orthogonalLoop=1;jettySize=auto;html=1;exitX=0.5;exitY=1;exitDx=0;exitDy=0;entryX=0;entryY=0.5;entryDx=0;entryDy=0;" edge="1" parent="WIyWlLk6GJQsqaUBKTNV-1" source="LxilRW_G5FVL5WIiPjVo-84" target="LxilRW_G5FVL5WIiPjVo-85">
          <mxGeometry relative="1" as="geometry" />
        </mxCell>
        <mxCell id="LxilRW_G5FVL5WIiPjVo-82" value="No" style="edgeLabel;html=1;align=center;verticalAlign=middle;resizable=0;points=[];" vertex="1" connectable="0" parent="LxilRW_G5FVL5WIiPjVo-81">
          <mxGeometry x="-0.1077" y="8" relative="1" as="geometry">
            <mxPoint x="12" as="offset" />
          </mxGeometry>
        </mxCell>
        <mxCell id="LxilRW_G5FVL5WIiPjVo-83" style="edgeStyle=orthogonalEdgeStyle;curved=1;rounded=0;orthogonalLoop=1;jettySize=auto;html=1;entryX=0;entryY=0.5;entryDx=0;entryDy=0;fontFamily=Helvetica;fontSize=12;" edge="1" parent="WIyWlLk6GJQsqaUBKTNV-1" source="LxilRW_G5FVL5WIiPjVo-84" target="LxilRW_G5FVL5WIiPjVo-88">
          <mxGeometry relative="1" as="geometry" />
        </mxCell>
        <mxCell id="LxilRW_G5FVL5WIiPjVo-84" value="api key&lt;br&gt;valid" style="rhombus;whiteSpace=wrap;html=1;fillColor=#ffe6cc;strokeColor=#d79b00;" vertex="1" parent="WIyWlLk6GJQsqaUBKTNV-1">
          <mxGeometry x="575.63" y="3577.5" width="80" height="80" as="geometry" />
        </mxCell>
        <mxCell id="LxilRW_G5FVL5WIiPjVo-85" value="error" style="rounded=1;whiteSpace=wrap;html=1;fillColor=#f8cecc;strokeColor=#b85450;" vertex="1" parent="WIyWlLk6GJQsqaUBKTNV-1">
          <mxGeometry x="690.63" y="3675" width="80" height="40" as="geometry" />
        </mxCell>
        <mxCell id="LxilRW_G5FVL5WIiPjVo-86" style="edgeStyle=orthogonalEdgeStyle;curved=1;rounded=0;orthogonalLoop=1;jettySize=auto;html=1;entryX=0.5;entryY=0;entryDx=0;entryDy=0;fontFamily=Helvetica;fontSize=12;" edge="1" parent="WIyWlLk6GJQsqaUBKTNV-1" source="LxilRW_G5FVL5WIiPjVo-88" target="LxilRW_G5FVL5WIiPjVo-85">
          <mxGeometry relative="1" as="geometry" />
        </mxCell>
        <mxCell id="LxilRW_G5FVL5WIiPjVo-87" value="" style="edgeStyle=orthogonalEdgeStyle;rounded=0;orthogonalLoop=1;jettySize=auto;html=1;fontFamily=Helvetica;fontSize=12;" edge="1" parent="WIyWlLk6GJQsqaUBKTNV-1" source="LxilRW_G5FVL5WIiPjVo-88" target="LxilRW_G5FVL5WIiPjVo-89">
          <mxGeometry relative="1" as="geometry" />
        </mxCell>
        <mxCell id="LxilRW_G5FVL5WIiPjVo-88" value="code" style="shape=process;whiteSpace=wrap;html=1;backgroundOutline=1;fontFamily=Helvetica;fontSize=12;fillColor=#ffe6cc;strokeColor=#d79b00;" vertex="1" parent="WIyWlLk6GJQsqaUBKTNV-1">
          <mxGeometry x="690.63" y="3598.75" width="80" height="36.25" as="geometry" />
        </mxCell>
        <mxCell id="LxilRW_G5FVL5WIiPjVo-89" value="&lt;div style=&quot;&quot;&gt;&lt;font face=&quot;Times New Roman&quot; color=&quot;#000000&quot;&gt;{&lt;/font&gt;&lt;/div&gt;&lt;div style=&quot;&quot;&gt;&lt;font face=&quot;Times New Roman&quot; color=&quot;#000000&quot;&gt;&amp;nbsp; &quot;role_id&quot;: 2,&lt;/font&gt;&lt;/div&gt;&lt;div style=&quot;&quot;&gt;&lt;font face=&quot;Times New Roman&quot; color=&quot;#000000&quot;&gt;&amp;nbsp; &quot;company_id&quot;: 1,&lt;/font&gt;&lt;/div&gt;&lt;div style=&quot;&quot;&gt;&lt;font face=&quot;Times New Roman&quot; color=&quot;#000000&quot;&gt;&amp;nbsp; &quot;userapp_id&quot;: null,&lt;/font&gt;&lt;/div&gt;&lt;div style=&quot;&quot;&gt;&lt;font face=&quot;Times New Roman&quot; color=&quot;#000000&quot;&gt;&amp;nbsp; &quot;id&quot;: 7,&lt;/font&gt;&lt;/div&gt;&lt;div style=&quot;&quot;&gt;&lt;span style=&quot;color: rgb(0, 0, 0); font-family: &amp;quot;Times New Roman&amp;quot;; background-color: initial;&quot;&gt;&amp;nbsp; &quot;first_name&quot;: &quot;string&quot;,&lt;/span&gt;&lt;br&gt;&lt;/div&gt;&lt;div style=&quot;&quot;&gt;&lt;font face=&quot;Times New Roman&quot; color=&quot;#000000&quot;&gt;&amp;nbsp; &quot;last_name&quot;: &quot;string&quot;,&lt;/font&gt;&lt;/div&gt;&lt;div style=&quot;&quot;&gt;&lt;font face=&quot;Times New Roman&quot; color=&quot;#000000&quot;&gt;&amp;nbsp; &quot;email&quot;: &quot;user1@example.com&quot;,&lt;/font&gt;&lt;/div&gt;&lt;div style=&quot;&quot;&gt;&lt;font face=&quot;Times New Roman&quot; color=&quot;#000000&quot;&gt;&amp;nbsp; &quot;phone&quot;: &quot;27367467478&quot;,&lt;/font&gt;&lt;/div&gt;&lt;div style=&quot;&quot;&gt;&lt;font face=&quot;Times New Roman&quot; color=&quot;#000000&quot;&gt;&amp;nbsp; &quot;status&quot;: &quot;active&quot;,&lt;/font&gt;&lt;/div&gt;&lt;div style=&quot;&quot;&gt;&lt;font face=&quot;Times New Roman&quot; color=&quot;#000000&quot;&gt;&amp;nbsp; &quot;active&quot;: false&lt;/font&gt;&lt;/div&gt;&lt;div style=&quot;&quot;&gt;&lt;font face=&quot;Times New Roman&quot; color=&quot;#000000&quot;&gt;}&lt;/font&gt;&lt;/div&gt;" style="text;html=1;strokeColor=#666666;fillColor=#f5f5f5;align=left;verticalAlign=middle;whiteSpace=wrap;rounded=0;fontColor=#333333;fontSize=12;fontFamily=Helvetica;" vertex="1" parent="WIyWlLk6GJQsqaUBKTNV-1">
          <mxGeometry x="821.88" y="3550.63" width="180" height="189.37" as="geometry" />
        </mxCell>
        <mxCell id="LxilRW_G5FVL5WIiPjVo-92" style="edgeStyle=orthogonalEdgeStyle;rounded=0;orthogonalLoop=1;jettySize=auto;html=1;entryX=0;entryY=0.5;entryDx=0;entryDy=0;fontColor=#FFFFFF;" edge="1" parent="WIyWlLk6GJQsqaUBKTNV-1" source="LxilRW_G5FVL5WIiPjVo-90" target="LxilRW_G5FVL5WIiPjVo-80">
          <mxGeometry relative="1" as="geometry" />
        </mxCell>
        <mxCell id="LxilRW_G5FVL5WIiPjVo-90" value="&lt;div&gt;current_user_email&lt;/div&gt;" style="text;html=1;strokeColor=#666666;fillColor=#f5f5f5;align=left;verticalAlign=middle;whiteSpace=wrap;rounded=0;fontColor=#333333;" vertex="1" parent="WIyWlLk6GJQsqaUBKTNV-1">
          <mxGeometry x="240.63" y="3640" width="120" height="35" as="geometry" />
        </mxCell>
        <mxCell id="LxilRW_G5FVL5WIiPjVo-94" value="Portal Users" style="rounded=0;whiteSpace=wrap;html=1;fontColor=#FFFFFF;fillColor=#004C99;fontStyle=1;fontSize=27;" vertex="1" parent="WIyWlLk6GJQsqaUBKTNV-1">
          <mxGeometry x="19.37" y="1350" width="420.63" height="60" as="geometry" />
        </mxCell>
        <mxCell id="LxilRW_G5FVL5WIiPjVo-95" value="Portal Companies" style="rounded=0;whiteSpace=wrap;html=1;fontColor=#FFFFFF;fillColor=#004C99;fontStyle=1;fontSize=27;" vertex="1" parent="WIyWlLk6GJQsqaUBKTNV-1">
          <mxGeometry x="25" y="3800" width="420.63" height="60" as="geometry" />
        </mxCell>
        <mxCell id="LxilRW_G5FVL5WIiPjVo-96" value="&lt;pre style=&quot;font-family: monospace; font-size: 12px; box-sizing: border-box; overflow-wrap: break-word; background: rgb(51, 51, 51); border-radius: 4px; color: white; font-weight: 600; hyphens: auto; margin: 0px; padding: 0.5em; word-break: break-word; font-style: normal; font-variant-ligatures: normal; font-variant-caps: normal; letter-spacing: normal; orphans: 2; text-align: start; text-indent: 0px; text-transform: none; widows: 2; word-spacing: 0px; -webkit-text-stroke-width: 0px; text-decoration-thickness: initial; text-decoration-style: initial; text-decoration-color: initial; display: block; overflow-x: auto;&quot; class=&quot;curl microlight&quot;&gt;&lt;code style=&quot;font-family: Consolas, monaco, monospace; font-size: 1em; box-sizing: border-box;&quot; class=&quot;language-bash&quot;&gt;&lt;span&gt;curl -X &lt;/span&gt;&lt;span style=&quot;color: rgb(162, 252, 162);&quot;&gt;&#39;GET&#39;&lt;/span&gt;&lt;span&gt; \&#xa;&lt;/span&gt;&lt;span&gt;  &lt;/span&gt;&lt;span style=&quot;color: rgb(162, 252, 162);&quot;&gt;&#39;http://127.0.0.1:8000/v1/portal_companies/list?current_user_email=acoello%40fido.tech&#39;&lt;/span&gt;&lt;span&gt; \&#xa;&lt;/span&gt;&lt;span&gt;  -H &lt;/span&gt;&lt;span style=&quot;color: rgb(162, 252, 162);&quot;&gt;&#39;accept: application/json&#39;&lt;/span&gt;&lt;span&gt; \&#xa;&lt;/span&gt;&lt;span&gt;  -H &lt;/span&gt;&lt;span style=&quot;color: rgb(162, 252, 162);&quot;&gt;&#39;X-FidoAPI-Key: gc8OEn6tHZ0ifEHRLEz08FwPdjJW93WP&#39;&lt;/span&gt;&lt;/code&gt;&lt;/pre&gt;" style="text;whiteSpace=wrap;html=1;fontSize=27;fontColor=#FFFFFF;" vertex="1" parent="WIyWlLk6GJQsqaUBKTNV-1">
          <mxGeometry x="25" y="3890" width="560" height="100" as="geometry" />
        </mxCell>
        <mxCell id="LxilRW_G5FVL5WIiPjVo-97" value="" style="edgeStyle=orthogonalEdgeStyle;rounded=0;orthogonalLoop=1;jettySize=auto;html=1;" edge="1" parent="WIyWlLk6GJQsqaUBKTNV-1" source="LxilRW_G5FVL5WIiPjVo-98" target="LxilRW_G5FVL5WIiPjVo-101">
          <mxGeometry relative="1" as="geometry" />
        </mxCell>
        <mxCell id="LxilRW_G5FVL5WIiPjVo-98" value="START" style="rounded=1;whiteSpace=wrap;html=1;fillColor=#f5f5f5;gradientColor=#b3b3b3;strokeColor=#666666;" vertex="1" parent="WIyWlLk6GJQsqaUBKTNV-1">
          <mxGeometry x="24.999999999999993" y="3994.37" width="60" height="37.5" as="geometry" />
        </mxCell>
        <mxCell id="LxilRW_G5FVL5WIiPjVo-100" style="edgeStyle=orthogonalEdgeStyle;rounded=0;orthogonalLoop=1;jettySize=auto;html=1;entryX=0;entryY=0.5;entryDx=0;entryDy=0;fontColor=#FFFFFF;" edge="1" parent="WIyWlLk6GJQsqaUBKTNV-1" source="LxilRW_G5FVL5WIiPjVo-101" target="LxilRW_G5FVL5WIiPjVo-116">
          <mxGeometry relative="1" as="geometry" />
        </mxCell>
        <mxCell id="LxilRW_G5FVL5WIiPjVo-101" value="List of companies" style="rounded=1;whiteSpace=wrap;html=1;fillColor=#004C99;strokeColor=#6c8ebf;fontStyle=1;fontSize=15;fontColor=#FFFFFF;" vertex="1" parent="WIyWlLk6GJQsqaUBKTNV-1">
          <mxGeometry x="115" y="3991.87" width="90" height="42.5" as="geometry" />
        </mxCell>
        <mxCell id="LxilRW_G5FVL5WIiPjVo-104" value="" style="edgeStyle=orthogonalEdgeStyle;rounded=0;orthogonalLoop=1;jettySize=auto;html=1;exitX=1;exitY=0.5;exitDx=0;exitDy=0;" edge="1" parent="WIyWlLk6GJQsqaUBKTNV-1" source="LxilRW_G5FVL5WIiPjVo-105" target="LxilRW_G5FVL5WIiPjVo-109">
          <mxGeometry relative="1" as="geometry">
            <mxPoint x="875" y="4011.87" as="sourcePoint" />
          </mxGeometry>
        </mxCell>
        <mxCell id="LxilRW_G5FVL5WIiPjVo-105" value="/portal_companies/list" style="rounded=1;whiteSpace=wrap;html=1;fillColor=#d5e8d4;strokeColor=#82b366;fontStyle=1" vertex="1" parent="WIyWlLk6GJQsqaUBKTNV-1">
          <mxGeometry x="405" y="3983.12" width="150" height="60" as="geometry" />
        </mxCell>
        <mxCell id="LxilRW_G5FVL5WIiPjVo-106" style="edgeStyle=orthogonalEdgeStyle;rounded=0;orthogonalLoop=1;jettySize=auto;html=1;exitX=0.5;exitY=1;exitDx=0;exitDy=0;entryX=0;entryY=0.5;entryDx=0;entryDy=0;" edge="1" parent="WIyWlLk6GJQsqaUBKTNV-1" source="LxilRW_G5FVL5WIiPjVo-109" target="LxilRW_G5FVL5WIiPjVo-110">
          <mxGeometry relative="1" as="geometry" />
        </mxCell>
        <mxCell id="LxilRW_G5FVL5WIiPjVo-107" value="No" style="edgeLabel;html=1;align=center;verticalAlign=middle;resizable=0;points=[];" vertex="1" connectable="0" parent="LxilRW_G5FVL5WIiPjVo-106">
          <mxGeometry x="-0.1077" y="8" relative="1" as="geometry">
            <mxPoint x="12" as="offset" />
          </mxGeometry>
        </mxCell>
        <mxCell id="LxilRW_G5FVL5WIiPjVo-108" style="edgeStyle=orthogonalEdgeStyle;curved=1;rounded=0;orthogonalLoop=1;jettySize=auto;html=1;entryX=0;entryY=0.5;entryDx=0;entryDy=0;fontFamily=Helvetica;fontSize=12;" edge="1" parent="WIyWlLk6GJQsqaUBKTNV-1" source="LxilRW_G5FVL5WIiPjVo-109" target="LxilRW_G5FVL5WIiPjVo-113">
          <mxGeometry relative="1" as="geometry" />
        </mxCell>
        <mxCell id="LxilRW_G5FVL5WIiPjVo-109" value="api key&lt;br&gt;valid" style="rhombus;whiteSpace=wrap;html=1;fillColor=#ffe6cc;strokeColor=#d79b00;" vertex="1" parent="WIyWlLk6GJQsqaUBKTNV-1">
          <mxGeometry x="580" y="3971.87" width="80" height="80" as="geometry" />
        </mxCell>
        <mxCell id="LxilRW_G5FVL5WIiPjVo-110" value="error" style="rounded=1;whiteSpace=wrap;html=1;fillColor=#f8cecc;strokeColor=#b85450;" vertex="1" parent="WIyWlLk6GJQsqaUBKTNV-1">
          <mxGeometry x="695" y="4069.37" width="80" height="40" as="geometry" />
        </mxCell>
        <mxCell id="LxilRW_G5FVL5WIiPjVo-111" style="edgeStyle=orthogonalEdgeStyle;curved=1;rounded=0;orthogonalLoop=1;jettySize=auto;html=1;entryX=0.5;entryY=0;entryDx=0;entryDy=0;fontFamily=Helvetica;fontSize=12;" edge="1" parent="WIyWlLk6GJQsqaUBKTNV-1" source="LxilRW_G5FVL5WIiPjVo-113" target="LxilRW_G5FVL5WIiPjVo-110">
          <mxGeometry relative="1" as="geometry" />
        </mxCell>
        <mxCell id="LxilRW_G5FVL5WIiPjVo-112" value="" style="edgeStyle=orthogonalEdgeStyle;rounded=0;orthogonalLoop=1;jettySize=auto;html=1;fontFamily=Helvetica;fontSize=12;" edge="1" parent="WIyWlLk6GJQsqaUBKTNV-1" source="LxilRW_G5FVL5WIiPjVo-113" target="LxilRW_G5FVL5WIiPjVo-114">
          <mxGeometry relative="1" as="geometry" />
        </mxCell>
        <mxCell id="LxilRW_G5FVL5WIiPjVo-113" value="code" style="shape=process;whiteSpace=wrap;html=1;backgroundOutline=1;fontFamily=Helvetica;fontSize=12;fillColor=#ffe6cc;strokeColor=#d79b00;" vertex="1" parent="WIyWlLk6GJQsqaUBKTNV-1">
          <mxGeometry x="695" y="3993.12" width="80" height="36.25" as="geometry" />
        </mxCell>
        <mxCell id="LxilRW_G5FVL5WIiPjVo-114" value="&lt;div style=&quot;&quot;&gt;&lt;div&gt;[&lt;/div&gt;&lt;div&gt;&amp;nbsp; {&lt;/div&gt;&lt;div&gt;&amp;nbsp; &amp;nbsp; &quot;company_name&quot;: &quot;FIDO&quot;,&lt;/div&gt;&lt;div&gt;&amp;nbsp; &amp;nbsp; &quot;address&quot;: &quot;Calle Principal 1, 9B&quot;,&lt;/div&gt;&lt;div&gt;&amp;nbsp; &amp;nbsp; &quot;phone&quot;: &quot;38495620665&quot;,&lt;/div&gt;&lt;div&gt;&amp;nbsp; &amp;nbsp; &quot;language&quot;: &quot;English&quot;,&lt;/div&gt;&lt;div&gt;&amp;nbsp; &amp;nbsp; &quot;metric_system&quot;: &quot;metric&quot;,&lt;/div&gt;&lt;div&gt;&amp;nbsp; &amp;nbsp; &quot;active&quot;: true,&lt;/div&gt;&lt;div&gt;&amp;nbsp; &amp;nbsp; &quot;id&quot;: 1&lt;/div&gt;&lt;div&gt;&amp;nbsp; },&lt;/div&gt;&lt;div&gt;&amp;nbsp; . . .&lt;/div&gt;&lt;/div&gt;" style="text;html=1;strokeColor=#666666;fillColor=#f5f5f5;align=left;verticalAlign=middle;whiteSpace=wrap;rounded=0;fontColor=#333333;fontSize=12;fontFamily=Helvetica;" vertex="1" parent="WIyWlLk6GJQsqaUBKTNV-1">
          <mxGeometry x="826.25" y="3945" width="203.75" height="185" as="geometry" />
        </mxCell>
        <mxCell id="LxilRW_G5FVL5WIiPjVo-115" style="edgeStyle=orthogonalEdgeStyle;rounded=0;orthogonalLoop=1;jettySize=auto;html=1;entryX=0;entryY=0.5;entryDx=0;entryDy=0;fontColor=#FFFFFF;" edge="1" parent="WIyWlLk6GJQsqaUBKTNV-1" source="LxilRW_G5FVL5WIiPjVo-116" target="LxilRW_G5FVL5WIiPjVo-105">
          <mxGeometry relative="1" as="geometry" />
        </mxCell>
        <mxCell id="LxilRW_G5FVL5WIiPjVo-116" value="&lt;div&gt;current_user_email&lt;/div&gt;" style="text;html=1;strokeColor=#666666;fillColor=#f5f5f5;align=left;verticalAlign=middle;whiteSpace=wrap;rounded=0;fontColor=#333333;" vertex="1" parent="WIyWlLk6GJQsqaUBKTNV-1">
          <mxGeometry x="249.38" y="3995.62" width="120" height="35" as="geometry" />
        </mxCell>
        <mxCell id="LxilRW_G5FVL5WIiPjVo-117" value="&lt;pre style=&quot;font-family: monospace; font-size: 12px; box-sizing: border-box; overflow-wrap: break-word; background: rgb(51, 51, 51); border-radius: 4px; color: white; font-weight: 600; hyphens: auto; margin: 0px; padding: 0.5em; word-break: break-word; font-style: normal; font-variant-ligatures: normal; font-variant-caps: normal; letter-spacing: normal; orphans: 2; text-align: start; text-indent: 0px; text-transform: none; widows: 2; word-spacing: 0px; -webkit-text-stroke-width: 0px; text-decoration-thickness: initial; text-decoration-style: initial; text-decoration-color: initial; display: block; overflow-x: auto;&quot; class=&quot;curl microlight&quot;&gt;&lt;code style=&quot;font-family: Consolas, monaco, monospace; font-size: 1em; box-sizing: border-box;&quot; class=&quot;language-bash&quot;&gt;&lt;span&gt;curl -X &lt;/span&gt;&lt;span style=&quot;color: rgb(162, 252, 162);&quot;&gt;&#39;GET&#39;&lt;/span&gt;&lt;span&gt; \&#xa;&lt;/span&gt;&lt;span&gt;  &lt;/span&gt;&lt;span style=&quot;color: rgb(162, 252, 162);&quot;&gt;&#39;http://127.0.0.1:8000/v1/portal_companies/list/branches?current_user_mail=acoello%40fido.tech&#39;&lt;/span&gt;&lt;span&gt; \&#xa;&lt;/span&gt;&lt;span&gt;  -H &lt;/span&gt;&lt;span style=&quot;color: rgb(162, 252, 162);&quot;&gt;&#39;accept: application/json&#39;&lt;/span&gt;&lt;span&gt; \&#xa;&lt;/span&gt;&lt;span&gt;  -H &lt;/span&gt;&lt;span style=&quot;color: rgb(162, 252, 162);&quot;&gt;&#39;X-FidoAPI-Key: gc8OEn6tHZ0ifEHRLEz08FwPdjJW93WP&#39;&lt;/span&gt;&lt;/code&gt;&lt;/pre&gt;" style="text;whiteSpace=wrap;html=1;fontSize=27;fontColor=#FFFFFF;" vertex="1" parent="WIyWlLk6GJQsqaUBKTNV-1">
          <mxGeometry x="25" y="4120" width="560" height="100" as="geometry" />
        </mxCell>
        <mxCell id="LxilRW_G5FVL5WIiPjVo-119" value="" style="edgeStyle=orthogonalEdgeStyle;rounded=0;orthogonalLoop=1;jettySize=auto;html=1;" edge="1" parent="WIyWlLk6GJQsqaUBKTNV-1" source="LxilRW_G5FVL5WIiPjVo-120" target="LxilRW_G5FVL5WIiPjVo-122">
          <mxGeometry relative="1" as="geometry" />
        </mxCell>
        <mxCell id="LxilRW_G5FVL5WIiPjVo-120" value="START" style="rounded=1;whiteSpace=wrap;html=1;fillColor=#f5f5f5;gradientColor=#b3b3b3;strokeColor=#666666;" vertex="1" parent="WIyWlLk6GJQsqaUBKTNV-1">
          <mxGeometry x="24.379999999999995" y="4229.37" width="60" height="37.5" as="geometry" />
        </mxCell>
        <mxCell id="LxilRW_G5FVL5WIiPjVo-121" style="edgeStyle=orthogonalEdgeStyle;rounded=0;orthogonalLoop=1;jettySize=auto;html=1;entryX=0;entryY=0.5;entryDx=0;entryDy=0;fontColor=#FFFFFF;" edge="1" parent="WIyWlLk6GJQsqaUBKTNV-1" source="LxilRW_G5FVL5WIiPjVo-122" target="LxilRW_G5FVL5WIiPjVo-135">
          <mxGeometry relative="1" as="geometry" />
        </mxCell>
        <mxCell id="LxilRW_G5FVL5WIiPjVo-122" value="List of companies and branches" style="rounded=1;whiteSpace=wrap;html=1;fillColor=#004C99;strokeColor=#6c8ebf;fontStyle=1;fontSize=15;fontColor=#FFFFFF;" vertex="1" parent="WIyWlLk6GJQsqaUBKTNV-1">
          <mxGeometry x="115" y="4201.5599999999995" width="90" height="93.13" as="geometry" />
        </mxCell>
        <mxCell id="LxilRW_G5FVL5WIiPjVo-123" value="" style="edgeStyle=orthogonalEdgeStyle;rounded=0;orthogonalLoop=1;jettySize=auto;html=1;exitX=1;exitY=0.5;exitDx=0;exitDy=0;" edge="1" parent="WIyWlLk6GJQsqaUBKTNV-1" source="LxilRW_G5FVL5WIiPjVo-124" target="LxilRW_G5FVL5WIiPjVo-128">
          <mxGeometry relative="1" as="geometry">
            <mxPoint x="874.38" y="4246.87" as="sourcePoint" />
          </mxGeometry>
        </mxCell>
        <mxCell id="LxilRW_G5FVL5WIiPjVo-124" value="/portal_companies/list/branches" style="rounded=1;whiteSpace=wrap;html=1;fillColor=#d5e8d4;strokeColor=#82b366;fontStyle=1" vertex="1" parent="WIyWlLk6GJQsqaUBKTNV-1">
          <mxGeometry x="370" y="4218.12" width="190" height="60" as="geometry" />
        </mxCell>
        <mxCell id="LxilRW_G5FVL5WIiPjVo-125" style="edgeStyle=orthogonalEdgeStyle;rounded=0;orthogonalLoop=1;jettySize=auto;html=1;exitX=0.5;exitY=1;exitDx=0;exitDy=0;entryX=0;entryY=0.5;entryDx=0;entryDy=0;" edge="1" parent="WIyWlLk6GJQsqaUBKTNV-1" source="LxilRW_G5FVL5WIiPjVo-128" target="LxilRW_G5FVL5WIiPjVo-129">
          <mxGeometry relative="1" as="geometry" />
        </mxCell>
        <mxCell id="LxilRW_G5FVL5WIiPjVo-126" value="No" style="edgeLabel;html=1;align=center;verticalAlign=middle;resizable=0;points=[];" vertex="1" connectable="0" parent="LxilRW_G5FVL5WIiPjVo-125">
          <mxGeometry x="-0.1077" y="8" relative="1" as="geometry">
            <mxPoint x="12" as="offset" />
          </mxGeometry>
        </mxCell>
        <mxCell id="LxilRW_G5FVL5WIiPjVo-127" style="edgeStyle=orthogonalEdgeStyle;curved=1;rounded=0;orthogonalLoop=1;jettySize=auto;html=1;entryX=0;entryY=0.5;entryDx=0;entryDy=0;fontFamily=Helvetica;fontSize=12;" edge="1" parent="WIyWlLk6GJQsqaUBKTNV-1" source="LxilRW_G5FVL5WIiPjVo-128" target="LxilRW_G5FVL5WIiPjVo-132">
          <mxGeometry relative="1" as="geometry" />
        </mxCell>
        <mxCell id="LxilRW_G5FVL5WIiPjVo-128" value="api key&lt;br&gt;valid" style="rhombus;whiteSpace=wrap;html=1;fillColor=#ffe6cc;strokeColor=#d79b00;" vertex="1" parent="WIyWlLk6GJQsqaUBKTNV-1">
          <mxGeometry x="590" y="4208.12" width="80" height="80" as="geometry" />
        </mxCell>
        <mxCell id="LxilRW_G5FVL5WIiPjVo-129" value="error" style="rounded=1;whiteSpace=wrap;html=1;fillColor=#f8cecc;strokeColor=#b85450;" vertex="1" parent="WIyWlLk6GJQsqaUBKTNV-1">
          <mxGeometry x="700" y="4304.37" width="80" height="40" as="geometry" />
        </mxCell>
        <mxCell id="LxilRW_G5FVL5WIiPjVo-130" style="edgeStyle=orthogonalEdgeStyle;curved=1;rounded=0;orthogonalLoop=1;jettySize=auto;html=1;entryX=0.5;entryY=0;entryDx=0;entryDy=0;fontFamily=Helvetica;fontSize=12;" edge="1" parent="WIyWlLk6GJQsqaUBKTNV-1" source="LxilRW_G5FVL5WIiPjVo-132" target="LxilRW_G5FVL5WIiPjVo-129">
          <mxGeometry relative="1" as="geometry" />
        </mxCell>
        <mxCell id="LxilRW_G5FVL5WIiPjVo-131" value="" style="edgeStyle=orthogonalEdgeStyle;rounded=0;orthogonalLoop=1;jettySize=auto;html=1;fontFamily=Helvetica;fontSize=12;" edge="1" parent="WIyWlLk6GJQsqaUBKTNV-1" source="LxilRW_G5FVL5WIiPjVo-132" target="LxilRW_G5FVL5WIiPjVo-133">
          <mxGeometry relative="1" as="geometry" />
        </mxCell>
        <mxCell id="LxilRW_G5FVL5WIiPjVo-132" value="code" style="shape=process;whiteSpace=wrap;html=1;backgroundOutline=1;fontFamily=Helvetica;fontSize=12;fillColor=#ffe6cc;strokeColor=#d79b00;" vertex="1" parent="WIyWlLk6GJQsqaUBKTNV-1">
          <mxGeometry x="700" y="4230.62" width="80" height="36.25" as="geometry" />
        </mxCell>
        <mxCell id="LxilRW_G5FVL5WIiPjVo-133" value="&lt;div style=&quot;&quot;&gt;&lt;div&gt;[&lt;/div&gt;&lt;div&gt;&amp;nbsp; {&lt;/div&gt;&lt;div&gt;&amp;nbsp; &amp;nbsp; &quot;company_name&quot;: &quot;FIDO&quot;,&lt;/div&gt;&lt;div&gt;&amp;nbsp; &amp;nbsp; &quot;address&quot;: &quot;Calle Principal 1, 9B&quot;,&lt;/div&gt;&lt;div&gt;&amp;nbsp; &amp;nbsp; &quot;phone&quot;: &quot;38495620665&quot;,&lt;/div&gt;&lt;div&gt;&amp;nbsp; &amp;nbsp; &quot;language&quot;: &quot;English&quot;,&lt;/div&gt;&lt;div&gt;&amp;nbsp; &amp;nbsp; &quot;metric_system&quot;: &quot;metric&quot;,&lt;/div&gt;&lt;div&gt;&amp;nbsp; &amp;nbsp; &quot;active&quot;: true,&lt;/div&gt;&lt;div&gt;&amp;nbsp; &amp;nbsp; &quot;id&quot;: 1,&lt;/div&gt;&lt;div&gt;&amp;nbsp; &amp;nbsp; &quot;branches&quot;: [&lt;/div&gt;&lt;div&gt;&amp;nbsp; &amp;nbsp; &amp;nbsp; {&lt;/div&gt;&lt;div&gt;&amp;nbsp; &amp;nbsp; &amp;nbsp; &amp;nbsp; &quot;company_id&quot;: 1,&lt;/div&gt;&lt;div&gt;&amp;nbsp; &amp;nbsp; &amp;nbsp; &amp;nbsp; &quot;branch_name&quot;: &quot;Branch 2&quot;,&lt;/div&gt;&lt;div&gt;&amp;nbsp; &amp;nbsp; &amp;nbsp; &amp;nbsp; &quot;address&quot;: &quot;Street 33&quot;,&lt;/div&gt;&lt;div&gt;&amp;nbsp; &amp;nbsp; &amp;nbsp; &amp;nbsp; &quot;phone&quot;: &quot;78852233174&quot;,&lt;/div&gt;&lt;div&gt;&amp;nbsp; &amp;nbsp; &amp;nbsp; &amp;nbsp; &quot;active&quot;: true,&lt;/div&gt;&lt;div&gt;&amp;nbsp; &amp;nbsp; &amp;nbsp; &amp;nbsp; &quot;id&quot;: 2&lt;/div&gt;&lt;div&gt;&amp;nbsp; &amp;nbsp; &amp;nbsp; },&lt;/div&gt;&lt;div&gt;&amp;nbsp; &amp;nbsp; &amp;nbsp; {&lt;/div&gt;&lt;div&gt;&amp;nbsp; &amp;nbsp; &amp;nbsp; &amp;nbsp; &quot;company_id&quot;: 1,&lt;/div&gt;&lt;div&gt;&amp;nbsp; &amp;nbsp; &amp;nbsp; &amp;nbsp; &quot;branch_name&quot;: &quot;Main Branch&quot;,&lt;/div&gt;&lt;div&gt;&amp;nbsp; &amp;nbsp; &amp;nbsp; &amp;nbsp; &quot;address&quot;: &quot;22 Central St&quot;,&lt;/div&gt;&lt;div&gt;&amp;nbsp; &amp;nbsp; &amp;nbsp; &amp;nbsp; &quot;phone&quot;: &quot;38495620665&quot;,&lt;/div&gt;&lt;div&gt;&amp;nbsp; &amp;nbsp; &amp;nbsp; &amp;nbsp; &quot;active&quot;: true,&lt;/div&gt;&lt;div&gt;&amp;nbsp; &amp;nbsp; &amp;nbsp; &amp;nbsp; &quot;id&quot;: 1&lt;/div&gt;&lt;div&gt;&amp;nbsp; &amp;nbsp; &amp;nbsp; }&lt;/div&gt;&lt;div&gt;&amp;nbsp; &amp;nbsp; ]&lt;/div&gt;&lt;div&gt;&amp;nbsp; },&lt;/div&gt;&lt;div&gt;&amp;nbsp; . . .&amp;nbsp;&lt;/div&gt;&lt;/div&gt;" style="text;html=1;strokeColor=#666666;fillColor=#f5f5f5;align=left;verticalAlign=middle;whiteSpace=wrap;rounded=0;fontColor=#333333;fontSize=12;fontFamily=Helvetica;" vertex="1" parent="WIyWlLk6GJQsqaUBKTNV-1">
          <mxGeometry x="825.63" y="4140" width="203.75" height="430.63" as="geometry" />
        </mxCell>
        <mxCell id="LxilRW_G5FVL5WIiPjVo-134" style="edgeStyle=orthogonalEdgeStyle;rounded=0;orthogonalLoop=1;jettySize=auto;html=1;entryX=0;entryY=0.5;entryDx=0;entryDy=0;fontColor=#FFFFFF;" edge="1" parent="WIyWlLk6GJQsqaUBKTNV-1" source="LxilRW_G5FVL5WIiPjVo-135" target="LxilRW_G5FVL5WIiPjVo-124">
          <mxGeometry relative="1" as="geometry" />
        </mxCell>
        <mxCell id="LxilRW_G5FVL5WIiPjVo-135" value="&lt;div&gt;current_user_email&lt;/div&gt;" style="text;html=1;strokeColor=#666666;fillColor=#f5f5f5;align=left;verticalAlign=middle;whiteSpace=wrap;rounded=0;fontColor=#333333;" vertex="1" parent="WIyWlLk6GJQsqaUBKTNV-1">
          <mxGeometry x="230" y="4230.62" width="120" height="35" as="geometry" />
        </mxCell>
      </root>
    </mxGraphModel>
  </diagram>
</mxfile>
